<?xml version="1.0" standalone="no"?>
<!DOCTYPE svg PUBLIC "-//W3C//DTD SVG 1.1//EN" "http://www.w3.org/Graphics/SVG/1.1/DTD/svg11.dtd" >
<svg xmlns="http://www.w3.org/2000/svg" xmlns:xlink="http://www.w3.org/1999/xlink" version="1.1">
<metadata>
Created by FontForge 20170812 at Thu Nov 12 15:03:06 2020
 By root
Copyright (c) 2020, root
</metadata>
<defs>
<font id="icons" horiz-adv-x="512" >
  <font-face 
    font-family="icons"
    font-weight="400"
    font-stretch="normal"
    units-per-em="512"
    panose-1="2 0 5 3 0 0 0 0 0 0"
    ascent="448"
    descent="-64"
    bbox="-1.5 -109 1324.62 510.643"
    underline-thickness="25"
    underline-position="-76"
    unicode-range="U+E001-E134"
  />
<missing-glyph horiz-adv-x="187" 
d="M17 0v341h136v-341h-136zM34 17h102v307h-102v-307z" />
    <glyph glyph-name=".notdef" horiz-adv-x="187" 
d="M17 0v341h136v-341h-136zM34 17h102v307h-102v-307z" />
    <glyph glyph-name=".null" horiz-adv-x="0" 
 />
    <glyph glyph-name="nonmarkingreturn" horiz-adv-x="170" 
 />
    <glyph glyph-name="uniE001" unicode="&#xe001;" horiz-adv-x="487" 
d="M105 41q62 -62 151 -62t151 62l30 -30q-75 -75 -181 -75t-181 75t-75 181t75 181q67 67 161 74t169 -47v48h43v-85v-43h-43h-85v43h64q-63 47 -142.5 42t-136.5 -62q-62 -62 -62 -151t62 -151zM166 138q27 0 27 18q0 17 -29 17q-4 0 -11 -1h-7v27h18q27 0 27 15
q0 17 -27 17q-21 0 -36 -15l-15 19q21 23 54 23q25 0 39.5 -10.5t14.5 -28.5q0 -26 -31 -32q12 -2 22.5 -11t10.5 -23q0 -19 -15.5 -30.5t-40.5 -11.5q-38 0 -56 23l16 20q16 -16 39 -16zM305 231q-16 0 -25.5 -11.5t-9.5 -28.5v-3q13 18 36 18q21 0 35 -12t14 -34
q0 -21 -15 -35t-39 -14q-31 0 -46.5 20.5t-15.5 52.5q0 33 17.5 53.5t48.5 20.5q25 0 42 -15l-13 -23q-13 11 -29 11zM298 180q-18 0 -28 -13q2 -29 29 -29q11 0 18 6.5t7 14.5q0 21 -26 21zM428 258q29 0 44 -21.5t15 -51.5q0 -31 -15 -52.5t-44 -21.5t-44 21.5t-15 52.5
q0 30 15 51.5t44 21.5zM428 138q28 0 28 47q0 46 -28 46t-28 -46q0 -47 28 -47z" />
    <glyph glyph-name="uniE002" unicode="&#xe002;" 
d="M164 168q26 0 26 20q0 15 -4.5 18.5t-21.5 3.5h-20v24h20q14 0 19 3t5 15q0 11 -4.5 15t-19.5 4q-22 0 -25 -15h-24q0 37 49 37q48 0 48 -41q0 -24 -13 -29q14 -5 14 -31t-12 -36t-37 -10q-49 0 -49 37h25q0 -15 24 -15zM290 271q-16 0 -20.5 -6.5t-4.5 -21.5v-7
q9 7 25 7q25 0 36.5 -11t11.5 -38q0 -48 -48 -48q-35 0 -45 26q-6 14 -6 42q0 38 2 47q6 32 47 32q46 0 46 -37h-24q0 15 -20 15zM292 221q-28 0 -25 -25q0 -15 5 -21.5t18 -6.5q14 0 19 5.5t5 20.5q0 17 -4.5 22t-17.5 5zM411 293q24 0 35.5 -12.5t12.5 -24t1 -37.5v-24
t-2.5 -18.5t-7.5 -17t-14.5 -9t-24.5 -4.5q-18 0 -28.5 4.5t-14.5 16t-5 19.5t-1 26v7q0 26 1 37.5t12.5 24t35.5 12.5zM433 181q2 4 2 38t-2 39q-4 13 -22 13t-22 -13q-2 -5 -2 -39q0 -33 2 -38q4 -13 22 -13t22 13zM475 315q0 7 5.5 12.5t12.5 5.5q8 0 13.5 -5.5
t5.5 -12.5t-6 -13t-13 -6t-12.5 5.5t-5.5 13.5zM363 84q14 14 26 2q13 -14 0 -27q-65 -68 -161 -68q-95 0 -161 66q-67 67 -67 161t67 162q65 68 161 68q74 0 132 -40v22q0 7 5 12.5t13 5.5q7 0 12.5 -5t5.5 -13v-70q0 -7 -5 -12.5t-13 -5.5h-66q-7 0 -12.5 5.5t-5.5 12.5
t5 13t13 6h17q-50 29 -101 29q-80 0 -135 -55q-56 -55 -56 -134t56 -135q57 -57 135 -57t135 57z" />
    <glyph glyph-name="uniE003" unicode="&#xe003;" horiz-adv-x="514" 
d="M117 107q-49 0 -83 34t-34 82.5t34 83.5q32 32 76.5 34.5t78.5 -25.5q7 -5 8 -14t-6 -16q-11 -16 -29 -4q-21 17 -49.5 15.5t-49.5 -20.5q-21 -22 -21 -52.5t21 -53.5q21 -21 49.5 -22.5t51.5 17.5q7 7 16 6t14 -8q6 -7 5 -16t-8 -14q-30 -27 -74 -27zM315 107
q-49 0 -83 34t-34 82.5t34 83.5q34 34 82.5 34t83.5 -34q34 -34 34 -82.5t-34 -83.5q-34 -34 -83 -34zM315 299q-31 0 -53 -22q-22 -23 -22 -53t22 -51q22 -23 53 -23t54 23t23 53t-23 51q-22 22 -54 22zM494 36h-89l70 71q4 4 4 10q0 7 -4 11q-5 4 -12 4t-11 -4
q-1 -1 -2.5 -2t-2.5 -2q-7 -15 -21 -9q-15 7 -8 22q2 6 10 14q14 14 34.5 14t34.5 -14t14 -34q0 -23 -14 -34l-15 -15h15q17 0 17 -17q0 -15 -20 -15z" />
    <glyph glyph-name="uniE004" unicode="&#xe004;" 
d="M96 -64h-51l-45 45v49l262 260l30 -30l-249 -247v-15l19 -19h15l260 258l30 -30zM437 192h-106l-75 73v106l77 77h8h75h51l-57 -58v-44h44l58 57v-51v-75v-8zM348 235h72l49 51v17h-102v102h-17l-51 -51v-72zM81 448l-17 -113h77l-81 -169l10 116h-70z" />
    <glyph glyph-name="uniE005" unicode="&#xe005;" 
d="M427 171v-43q0 -31 -22 -56v-93q0 -18 -12 -30.5t-30 -12.5t-30.5 12.5t-12.5 30.5v64h-213v-64q0 -18 -12.5 -30.5t-30.5 -12.5t-30.5 12.5t-12.5 30.5v93q-21 24 -21 56q0 8 1 12l21 150q5 31 29 52t56 21h85q9 0 15 -6.5t6 -15.5t-6 -15t-15 -6h-85q-16 0 -28.5 -10.5
t-14.5 -26.5l-21 -149v-6q0 -18 12 -30.5t30 -12.5h256q18 0 30.5 12.5t12.5 30.5v43q0 9 6 15t15 6t15.5 -6t6.5 -15zM506 228q6 -6 6 -15t-6 -15t-15 -6t-15 6l-55 54q-26 -17 -58 -17q-44 0 -75.5 31t-31.5 75t31.5 75.5t75.5 31.5t75 -31.5t31 -75.5q0 -32 -17 -58z
M363 277q26 0 45 19t19 45t-19 45t-45 19t-45 -19t-19 -45t19 -45t45 -19z" />
    <glyph glyph-name="uniE006" unicode="&#xe006;" horiz-adv-x="511" 
d="M467 194q-32 -33 -75.5 -41.5t-82.5 7.5l-200 -205q-16 -19 -45 -19q-27 0 -45.5 18.5t-18.5 45.5q0 29 17 43l205 200q-15 39 -6 84t40 76q53 53 126 43l43 -7q6 0 12 -6q15 -15 0 -30l-74 -74q-15 -15 0 -30t30 0l74 76q15 15 30 0q6 -6 6 -12l7 -43q10 -73 -43 -126z
M288 373q-32 -31 -32.5 -74.5t30.5 -74.5q32 -32 75.5 -32t75.5 32q37 37 30 90l-45 -45q-17 -19 -43.5 -19t-45.5 19q-19 17 -19 43t19 46l45 45q-53 7 -90 -30zM79 -15l196 192q-6 4 -17 15t-15 17l-194 -194q-6 -6 -6 -15q0 -21 21 -21q9 0 15 6zM81 448l-17 -113h77
l-81 -169l10 116h-70z" />
    <glyph glyph-name="uniE007" unicode="&#xe007;" 
d="M256 226l-114 113l82 109h53v-43h-32l-46 -62l57 -57l55 55h137v-42h-119zM512 -64h-43v34l-30 30h-366l-30 -30v-34h-43v52l55 55h402l55 -55v-52zM107 64q-44 0 -75.5 31.5t-31.5 75.5t31.5 75t75.5 31t75 -31t31 -75t-31 -75.5t-75 -31.5zM107 235q-26 0 -45 -19
t-19 -45t19 -45t45 -19t45 19t19 45t-19 45t-45 19zM405 64q-44 0 -75 31.5t-31 75.5t31 75t75 31t75.5 -31t31.5 -75t-31.5 -75.5t-75.5 -31.5zM405 235q-26 0 -45 -19t-19 -45t19 -45t45 -19t45 19t19 45t-19 45t-45 19z" />
    <glyph glyph-name="uniE008" unicode="&#xe008;" horiz-adv-x="514" 
d="M426 42q36 0 61 -24.5t27 -59.5q0 -9 -6.5 -15.5t-15.5 -6.5t-15.5 6.5t-6.5 15.5q0 18 -12 30t-30 12h-342q-18 0 -30 -12t-12 -30q0 -9 -6.5 -15.5t-15.5 -6.5q-10 0 -16 6t-6 14q0 36 25 61t61 25h340zM106 64q-44 0 -75 30.5t-31 75.5t30.5 76.5t75.5 31.5
t75.5 -31.5t30.5 -76.5q0 -44 -31 -75t-75 -31zM106 234q-26 0 -45 -19t-19 -45t19 -45t45 -19t45 19t19 45t-19 45t-45 19zM298 170q0 45 31 75.5t75 30.5t75 -31t31 -75t-31 -75t-75 -31t-75 31t-31 75zM470 170q0 27 -18.5 45.5t-45.5 18.5q-26 0 -45 -19t-19 -45t19 -45
t45 -19t45 19t19 45zM210 254l-44 40q-18 21 -18 46q0 13 7 29l22 44q16 35 57 35q22 0 22 -22q0 -9 -6.5 -15.5t-15.5 -6.5q-12 0 -18 -11l-20 -44q-2 -2 -2 -9q0 -10 5 -15l42 -42q5 -5 15 -5q9 0 16 9l26 35q32 42 86 42h33q22 0 22 -22q0 -9 -6.5 -15.5t-15.5 -6.5h-33
q-31 0 -51 -24l-26 -35q-18 -25 -51 -25q-28 0 -46 18z" />
    <glyph glyph-name="uniE009" unicode="&#xe009;" horiz-adv-x="325" 
d="M256 -64l-256 256l256 256l69 -69l-188 -187l188 -187z" />
    <glyph glyph-name="uniE00A" unicode="&#xe00a;" horiz-adv-x="325" 
d="M69 -64l-69 69l187 187l-187 187l69 69l256 -256z" />
    <glyph glyph-name="uniE00B" unicode="&#xe00b;" 
d="M512 213v-42h-235v-235h-42v235h-235v42h235v235h42v-235h235z" />
    <glyph glyph-name="uniE00C" unicode="&#xe00c;" horiz-adv-x="505" 
d="M406 220q-9 0 -15.5 -6t-6.5 -15v-28q0 -18 -12.5 -30.5t-30.5 -12.5h-256q-18 0 -30 12.5t-12 30.5v6l21 149q2 16 14.5 26.5t28.5 10.5h153q9 0 15 6t6 15t-6 15.5t-15 6.5h-153q-32 0 -56 -21t-29 -52l-21 -150q-1 -4 -1 -12q0 -48 43 -74v-75q0 -18 12 -30.5
t30 -12.5t30.5 12.5t12.5 30.5v64h192v-64q0 -18 12.5 -30.5t30.5 -12.5t30.5 12.5t12.5 30.5v93q21 24 21 56v28q0 9 -6 15t-15 6v0zM320 320l-15 -15l51 -52l15 -15l15 15l119 119l-15 16l-15 15l-104 -104l-36 36z" />
    <glyph glyph-name="uniE00D" unicode="&#xe00d;" 
d="M512 202v-148v-64h-106v64h-300v-64h-106v64v154l26 74l32 22l35 70h185v-44h-160l-28 -58l-29 -19l-19 -55v-102h428v106h42zM374 160v22l74 20v-42h-74zM64 160v42l74 -20v-22h-74zM170 160v22h169v-22q0 -17 -12.5 -29.5t-28.5 -12.5h-87q-16 0 -28.5 12.5t-12.5 29.5
zM512 365l-128 -128l-67 67l29 32l38 -38l96 96z" />
    <glyph glyph-name="uniE00E" unicode="&#xe00e;" 
d="M476 448h36v-512h-36h-7h-426h-22h-21v512h21h22h426h7zM43 -20h426v424h-426v-424zM226 137l-86 86l30 31l65 -65v174h43v-174l53 54l31 -31l-75 -75l-30 -30h-1v0l-1 1zM128 21v43h256v-43h-256z" />
    <glyph glyph-name="uniE00F" unicode="&#xe00f;" 
d="M252 227q-16 41 16 73q31 31 72 15l-43 -43v-39h38l44 44q17 -41 -15 -73t-73 -15l-107 -106l-38 38zM254 448q107 1 182 -73.5t76 -180.5t-73.5 -181.5t-181.5 -76.5q-74 0 -138 40l22 36q52 -33 116 -33q89 1 151 63.5t61 150.5t-63.5 150.5t-151.5 61.5v43zM182 438
l16 -40q-17 -4 -34 -12l-16 39q22 10 34 13zM78 378l33 -28q-16 -14 -25 -27l-33 28q13 17 25 27zM13 278l41 -11q-8 -21 -10 -35l-41 10q2 12 10 36zM0 158l42 10q1 -12 7 -36l-42 -9q-3 14 -7 35zM43 46l33 28q14 -20 22 -29l-32 -27q-16 18 -23 28z" />
    <glyph glyph-name="uniE010" unicode="&#xe010;" horiz-adv-x="352" 
d="M176 -64l-38 38l-138 138l38 38l109 -108v406h58v-406l109 108l38 -38l-138 -138l-38 -38v0z" />
    <glyph glyph-name="uniE011" unicode="&#xe011;" horiz-adv-x="308" 
d="M301 126q6 -4 7 -12t-2 -12l-137 -157q-1 -1 -2 -3q0 -1 -0.5 -1.5t-1.5 -0.5l-2 -2q-2 -2 -9 -2q-6 0 -8 2l-3 2q-1 1 -2 2.5t-2 2.5l-134 155q-5 4 -5 13t5 13q18 12 28 -2l100 -118v423q0 19 19 19t19 -19v-423l103 118q12 12 27 2z" />
    <glyph glyph-name="uniE012" unicode="&#xe012;" 
d="M0 192l33 33l117 117l33 -33l-93 -93h422v-48h-422l93 -93l-33 -33l-117 117l-33 33v0z" />
    <glyph glyph-name="uniE013" unicode="&#xe013;" horiz-adv-x="514" 
d="M192 46q-4 -5 -12.5 -6t-13.5 4l-159 139q-1 0 -1.5 1.5t-1.5 2.5l-2 1q-2 2 -2 8q0 5 2 7l2 2l3 3l158 134q14 11 27 -2q11 -14 -2 -27l-117 -101h423q7 0 12.5 -5.5t5.5 -12.5t-5 -12.5t-13 -5.5h-423l117 -103q14 -15 2 -27z" />
    <glyph glyph-name="uniE014" unicode="&#xe014;" 
d="M512 192l-33 -33l-117 -117l-33 33l93 93h-422v48h422l-93 93l33 33l117 -117l33 -33v0z" />
    <glyph glyph-name="uniE015" unicode="&#xe015;" horiz-adv-x="514" 
d="M322 340q4 5 12 6t13 -4l160 -139q1 0 1.5 -1.5t1.5 -2.5l2 -2q2 -2 2 -7t-2 -7l-2 -2q-1 0 -1.5 -1.5t-1.5 -2.5l-158 -133q-14 -11 -27 2q-11 14 2 27l117 101h-423q-7 0 -12.5 5.5t-5.5 12.5t5 12.5t13 5.5h423l-117 103q-14 15 -2 27z" />
    <glyph glyph-name="uniE016" unicode="&#xe016;" horiz-adv-x="418" 
d="M418 192l-54 -40l-121 148v-364h-68v364l-121 -148l-54 40l209 256z" />
    <glyph glyph-name="uniE017" unicode="&#xe017;" 
d="M0 82h512v-73h-512v73zM0 192v73h512v-73h-512zM0 448h512v-73h-512v73z" />
    <glyph glyph-name="uniE018" unicode="&#xe018;" 
d="M256 192h43l-43 -106v64h-43l43 106v-64zM428 341h84v-341h-512v341h85v43h128v-43h86v43h129v-43zM469 43v255h-426v-255h426z" />
    <glyph glyph-name="uniE019" unicode="&#xe019;" 
d="M127 165q0 12 7 23.5t21 26.5t15 16l14 -15q15 -16 21.5 -27.5t6.5 -23.5q0 -17 -12.5 -29t-29.5 -12t-30 12.5t-13 28.5zM343 86v106h43zM343 255v-106h-42zM428 341h84v-341h-512v341h85v43h128v-43h86v43h129v-43zM469 43v255h-426v-255h426z" />
    <glyph glyph-name="uniE01A" unicode="&#xe01a;" 
d="M126 159q0 12 7 23.5t21 26.5t15 16q1 -1 15 -16t21 -26.5t7 -23.5q0 -16 -13 -28.5t-30 -12.5t-30 12.5t-13 28.5zM343 80v106h43zM343 249v-106h-43zM427 335q35 0 60 -25t25 -60v-171q0 -35 -25 -60t-60 -25h-342q-35 0 -60 25t-25 60v171q0 35 25 60t60 25
q0 17 13 30t30 13h43q17 0 29.5 -13t12.5 -30h86q0 17 12.5 30t29.5 13h43q17 0 30 -13t13 -30zM469 79v171q0 17 -12.5 29.5t-29.5 12.5h-342q-17 0 -29.5 -12.5t-12.5 -29.5v-171q0 -17 12.5 -29.5t29.5 -12.5h342q17 0 29.5 12.5t12.5 29.5z" />
    <glyph glyph-name="uniE01B" unicode="&#xe01b;" 
d="M256 192h43l-43 -106v63h-43l43 106v-63zM427 341q35 0 60 -25t25 -60v-171q0 -35 -25 -60t-60 -25h-342q-35 0 -60 25t-25 60v171q0 35 25 60t60 25q0 17 13 30t30 13h43q17 0 29.5 -13t12.5 -30h86q0 17 12.5 30t29.5 13h43q17 0 30 -13t13 -30zM469 85v171
q0 17 -12.5 29.5t-29.5 12.5h-342q-17 0 -29.5 -12.5t-12.5 -29.5v-171q0 -17 12.5 -29.5t29.5 -12.5h342q17 0 29.5 12.5t12.5 29.5z" />
    <glyph glyph-name="uniE01C" unicode="&#xe01c;" 
d="M320 85v43h107v-43h-107zM512 -64h-512v261l114 251h398v-512zM43 -21h426v426h-327l-99 -218v-208zM427 171h-331l82 192h249v-192zM160 213h224v107h-178z" />
    <glyph glyph-name="uniE01D" unicode="&#xe01d;" horiz-adv-x="492" 
d="M389 141q8 0 14.5 -6.5t6.5 -14.5t-6.5 -14t-14.5 -6h-61q-8 0 -14.5 6t-6.5 14t6.5 14.5t14.5 6.5h61zM369 366q17 0 29 -12t12 -29v-102q0 -17 -12 -29t-29 -12h-226q-17 0 -29 12t-12 29q0 7 3 15l41 102q10 26 38 26h185zM369 223v102h-185l-41 -102h226zM430 448
q26 0 44 -18t18 -43v-185v-82v-102q0 -26 -18 -44t-44 -18h-369q-25 0 -43 18t-18 44v184q0 22 10 44l78 167q17 35 55 35h287zM451 18v369q0 8 -6.5 14t-14.5 6h-287q-13 0 -18 -12l-78 -167q-6 -12 -6 -26v-184q0 -8 6 -14.5t14 -6.5h369q8 0 14.5 6.5t6.5 14.5z" />
    <glyph glyph-name="uniE01E" unicode="&#xe01e;" horiz-adv-x="505" 
d="M123 334q5 62 38 96q17 17 34 18q20 1 32 -18q12 -20 10 -46q-3 -49 -31 -84q-17 -20 -37 -23q-30 -5 -41 26q-5 12 -5 31zM207 414v10q-1 6 -4.5 7.5t-7.5 -2.5q-7 -7 -11 -14q-22 -39 -34 -98q-2 -8 0 -17q1 -4 4 -5.5t6 0.5q5 3 8 8q16 22 28 55q10 29 11 56zM113 389
q-5 -64 -41 -99q-16 -14 -31 -14q-14 -1 -24.5 9t-14.5 27q-5 23 2 53q10 39 31 63q12 14 27 18q32 9 46 -25q5 -13 5 -32zM84 414q0 6 -1 9q-3 16 -13 4q-11 -13 -12 -16q-18 -35 -30 -88q-2 -14 -2 -20t4 -8.5t8 1.5q5 5 7 8q16 21 28 57q10 27 11 53zM324 424h-46l-3 -3
q-6 -12 -8 -18q-1 -4 -4 -4t-8.5 0.5t-8.5 0.5q0 1 1 4t1 5q2 5 6 17t6 17q2 3 5 3h95h3q0 -22 -9 -41q-5 -12 -28 -44q-3 -4 -8.5 -11.5t-7.5 -11.5q-19 -27 -28 -58h-39q8 28 15 40q6 9 16.5 24t14.5 21t12.5 18t12.5 18q8 11 10 23zM373 409q0 2 3 13t4 22h3h117
q5 0 4 -8q-1 -9 -10 -18q-2 -2 -4 -2h-16q-16 1 -16 0q-4 0 -9 -5q-2 -2 -7 -2h-69zM328 330q4 9 12 9q15 -2 31 0q6 0 9 4q8 9 15 29h-23q-3 0 -3 -5q-1 -5 -1 -15q-13 6 -9 25q2 11 12 11h59h5q-5 -9 -11 -10q-2 -1 -5 -1q-8 -2 -12 -9q-2 -4 -14 -26q-6 -12 -20 -12h-45z
" />
    <glyph glyph-name="uniE01F" unicode="&#xe01f;" 
d="M103 342q-60 -63 -60 -149q0 -88 63 -151l-31 -30q-75 75 -75 181q0 104 73 179zM255 362q71 0 121 -50t50 -121t-50 -121t-121 -50t-121 50t-50 121t50 121t121 50zM255 62q53 0 91 38t38 91t-38 90.5t-91 37.5t-90.5 -37.5t-37.5 -90.5t37.5 -91t90.5 -38zM437 372
q75 -75 75 -181q0 -104 -73 -179l-30 30q60 63 60 149q0 88 -63 151zM235 169v107h43v-107h-43zM235 105v43h43v-43h-43z" />
    <glyph glyph-name="uniE020" unicode="&#xe020;" 
d="M47 145l-42 -8q-12 56 2 112l42 -10q-11 -47 -2 -94zM497 276l-40 -15q-17 46 -50 79l30 30q41 -41 60 -94zM105 340q-33 -33 -50 -79l-40 15q19 53 60 94zM12 110l41 13q16 -47 48 -81l-32 -28q-41 44 -57 96zM255 231q18 0 30.5 -12t12.5 -30t-12.5 -30.5t-30.5 -12.5
t-30 12.5t-12 30.5t12 30t30 12zM411 42q32 34 48 81l41 -13q-16 -52 -57 -96zM505 249q14 -56 2 -112l-42 8q9 47 -2 94zM427 189q0 -71 -50.5 -121.5t-121.5 -50.5q-70 0 -120.5 50.5t-50.5 121.5t50 121t121 50t121.5 -50.5t50.5 -120.5zM384 189q0 53 -38 90.5t-91 37.5
t-90.5 -37.5t-37.5 -90.5t37.5 -91t90.5 -38t91 38t38 91z" />
    <glyph glyph-name="uniE021" unicode="&#xe021;" 
d="M311 448h201v-439h-183l-73 -73l-73 73h-183v439h201l55 -55zM43 51l158 1l34 -34v336l-52 51h-140v-354zM469 51v354h-140l-52 -51v-336l34 33h158z" />
    <glyph glyph-name="uniE022" unicode="&#xe022;" 
d="M512 289v-6q0 -21 -18 -31v-51q0 -11 -8.5 -19t-19.5 -8t-19 8t-8 19v46h-110v-46q0 -11 -8 -19t-19 -8t-19.5 8t-8.5 19v51q-18 10 -18 31v6l19 128q2 14 12.5 22.5t23.5 8.5h146q13 0 23.5 -8.5t12.5 -22.5zM293 283h182l-18 128h-146zM237 179l19 -128v-5
q0 -22 -18 -32v-51q0 -11 -8.5 -19t-19.5 -8t-19 8t-8 19v46h-110v-46q0 -11 -8 -19t-19 -8t-19.5 8t-8.5 19v51q-18 10 -18 32v5l19 128q2 14 12.5 22.5t23.5 8.5h146q13 0 23.5 -8.5t12.5 -22.5zM37 46h182l-18 128h-146zM397 150l36 -37q13 -13 0 -25q-6 -6 -12 -6
q-7 0 -13 6l-6 5v-66q0 -7 -5 -12.5t-13 -5.5h-55q-7 0 -12.5 5.5t-5.5 12.5q0 8 5.5 13.5t12.5 5.5h37v47l-6 -5q-13 -13 -26 0q-12 12 0 25l37 37q2 2 6 4q7 4 14 0q4 -2 6 -4zM115 252l-36 37q-13 13 0 26t25 0l6 -6v66q0 7 5 12.5t13 5.5h55q7 0 12.5 -5.5t5.5 -12.5
t-5.5 -12.5t-12.5 -5.5h-37v-48l6 6q13 13 26 0t0 -26l-37 -37q-2 -2 -6 -4q-2 -1 -7 -1t-7 1q-4 2 -6 4z" />
    <glyph glyph-name="uniE023" unicode="&#xe023;" 
d="M405 405h107v-469h-512v469h107v43h42v-43h86v43h42v-43h86v43h42v-43zM469 -21v256h-426v-256h426zM469 277v86h-64v-43h-42v43h-86v-43h-42v43h-86v-43h-42v43h-64v-86h426zM213 192h86v-43v-128h-43v128h-43v43z" />
    <glyph glyph-name="uniE024" unicode="&#xe024;" 
d="M427 405q35 0 60 -25t25 -60v-299q0 -35 -25 -60t-60 -25h-342q-35 0 -60 25t-25 60v299q0 35 25 60t60 25h22v22q0 9 6 15t15 6t15 -6t6 -15v-22h86v22q0 9 6 15t15 6t15 -6t6 -15v-22h86v22q0 9 6 15t15 6t15 -6t6 -15v-22h22zM85 363q-18 0 -30 -12.5t-12 -30.5v-43
h426v43q0 18 -12 30.5t-30 12.5h-22v-22q0 -9 -6 -15t-15 -6t-15 6t-6 15v22h-86v-22q0 -9 -6 -15t-15 -6t-15 6t-6 15v22h-86v-22q0 -9 -6 -15t-15 -6t-15 6t-6 15v22h-22zM427 -21q18 0 30 12t12 30v214h-426v-214q0 -18 12 -30t30 -12h342zM299 64q9 0 15 -6t6 -15
t-6 -15.5t-15 -6.5h-86q-9 0 -15 6.5t-6 15.5t6 15t15 6t15.5 6t6.5 15v64q-9 0 -15.5 6.5t-6.5 15.5t6.5 15t15.5 6h21q9 0 15 -6t6 -15v-86q0 -9 6.5 -15t15.5 -6z" />
    <glyph glyph-name="uniE025" unicode="&#xe025;" 
d="M460 415q29 -29 42 -64.5t10 -53t-2 -23.5l-1 -9l-139 -89l-60 60l-95 -93l61 -60l-101 -146l-11 -1h-2q-68 0 -128 59q-29 28 -32.5 64t9.5 64t35 49l233 230q34 34 78 43q59 12 103 -30zM468 290q3 53 -39 95q-20 20 -47 20q-4 0 -16 -2q-30 -6 -56 -31l-233 -230
q-3 -3 -7 -8t-12.5 -18.5t-12 -27t0.5 -31t19 -32.5q39 -39 87 -45l67 98l-66 65l157 154l66 -66z" />
    <glyph glyph-name="uniE026" unicode="&#xe026;" 
d="M427 320h85v-384h-192h-21h-299v213h85v43q0 17 13 30t30 13h43v85h85v128h171v-128zM299 405v-85h85v85h-85zM128 192v-43h64v43h-64zM277 -21v128h-42h-150h-42v-128h234zM469 -21v298h-42h-171h-43v-48q22 -12 22 -37v-43h85v-170h149z" />
    <glyph glyph-name="uniE027" unicode="&#xe027;" 
d="M448 320q26 0 45 -18.5t19 -45.5v-256q0 -26 -19 -45t-45 -19h-149v0h-278q-9 0 -15 6t-6 15v171q0 21 21 21h64v43q0 17 13 30t30 13h43v21q0 27 19 45.5t45 18.5h21v107q0 21 21 21h128q9 0 15.5 -6t6.5 -15v-107h21zM299 405v-85h85v85h-85zM128 192v-43h64v43h-64z
M277 -21v128h-64h-106h-64v-128h234zM469 0v256q0 8 -6.5 14.5t-14.5 6.5h-43h-128h-42q-22 0 -22 -21v-28q22 -10 22 -36v-43h64q21 0 21 -21v-149h128q8 0 14.5 6.5t6.5 14.5z" />
    <glyph glyph-name="uniE028" unicode="&#xe028;" 
d="M425 448q36 0 61.5 -25.5t25.5 -61.5v-139q0 -36 -25.5 -62t-61.5 -26h-338q-36 0 -61.5 26t-25.5 62v139q0 36 25.5 61.5t61.5 25.5h338zM180 271q-9 9 -9 24t9 24t24 9q7 0 11 -2q5 -3 9 -8l27 29q-8 8 -23 13q-12 4 -24 4q-14 0 -29 -5q-11 -4 -23 -14q-9 -8 -16 -22
q-5 -10 -5 -28t5 -28q7 -14 16 -22q12 -10 23 -14q15 -5 29 -5q12 0 24 4q13 4 23 14l-27 28q-1 -2 -9 -7q-5 -3 -11 -3q-15 0 -24 9zM310 271q-8 8 -8 24t8 24q9 9 24 9q8 0 12 -2q6 -3 9 -8l26 29q-9 9 -22 13q-12 4 -25 4t-28 -5q-11 -4 -23 -14q-10 -8 -16 -21
q-6 -12 -6 -29q0 -16 6 -28q6 -13 16 -22q12 -10 23 -14q15 -5 28 -5t25 4q13 4 22 13l-26 29q-1 -2 -9 -7q-4 -3 -12 -3q-15 0 -24 9z" />
    <glyph glyph-name="uniE029" unicode="&#xe029;" 
d="M425 448q36 0 61.5 -25.5t25.5 -61.5v-139q0 -36 -25.5 -62t-61.5 -26h-338q-36 0 -61.5 26t-25.5 62v139q0 36 25.5 61.5t61.5 25.5h338zM471 222v139q0 19 -13.5 32.5t-32.5 13.5h-338q-19 0 -32.5 -13.5t-13.5 -32.5v-139q0 -19 13.5 -33t32.5 -14h338q19 0 32.5 14
t13.5 33zM204 328q-15 0 -24 -9t-9 -24t9 -24t24 -9q6 0 11 3q8 5 9 7l27 -28q-10 -10 -23 -14q-12 -4 -24 -4q-14 0 -29 5q-11 4 -23 14q-9 8 -16 22q-5 10 -5 28t5 28q7 14 16 22q12 10 23 14q15 5 29 5q12 0 24 -4q15 -5 23 -13l-27 -29q-4 5 -9 8q-4 2 -11 2zM334 328
q-15 0 -24 -9q-8 -8 -8 -24t8 -24q9 -9 24 -9q8 0 12 3q8 5 9 7l26 -29q-9 -9 -22 -13q-12 -4 -25 -4t-28 5q-11 4 -23 14q-10 9 -16 22q-6 12 -6 28q0 17 6 29q6 13 16 21q12 10 23 14q15 5 28 5t25 -4q13 -4 22 -13l-26 -29q-3 5 -9 8q-4 2 -12 2z" />
    <glyph glyph-name="uniE02A" unicode="&#xe02a;" horiz-adv-x="729" 
d="M0 -59q1 3 2.5 11t2.5 11q8 25 31.5 43t49.5 18l272 2q22 0 50.5 8.5t46.5 20.5q26 16 48 49.5t27 63.5q2 16 2 28q0 47 -27 87q-19 31 -59 53.5t-76 24.5q-2 0 -8 0.5t-8 0.5q-29 0 -64 -14t-55 -34q-22 -19 -37.5 -54.5t-15.5 -64.5v-3v-1q0 -34 19 -72t46 -58h-3h-108
h-1q-3 0 -4 3q-16 25 -26.5 62.5t-10.5 67.5v8q1 39 22 86.5t48 75.5q26 28 70.5 52t81.5 29q24 4 45 4q36 0 81.5 -15.5t74.5 -37.5q27 -19 54 -54.5t37 -66.5q13 -36 13 -81q0 -55 -23 -103q-21 -46 -70 -87.5t-98 -54.5q-32 -10 -71 -10l-354 -3h-5v5zM493 -62
q5 3 13.5 7t12.5 7q47 27 81 70q2 3 5 3h1h56q28 -1 47.5 -22t19.5 -49v-1v-12q0 -3 -2 -3h-234z" />
    <glyph glyph-name="uniE02B" unicode="&#xe02b;" 
d="M256 401q-86 0 -147.5 -61.5t-61.5 -147.5t61.5 -147.5t147.5 -61.5t147.5 61.5t61.5 147.5t-61.5 147.5t-147.5 61.5zM256 448q106 0 181 -75t75 -181t-75 -181t-181 -75t-181 75t-75 181t75 181t181 75zM233 169v139h46v-139h-46zM233 76v46h46v-46h-46z" />
    <glyph glyph-name="uniE02C" unicode="&#xe02c;" 
d="M288 97q0 -12 -8 -20t-20 -8q-11 0 -19.5 8t-8.5 19q0 12 8 20.5t20 8.5q11 0 19.5 -8.5t8.5 -19.5zM284 180q0 -10 -7 -17.5t-18 -7.5q-10 0 -17 7t-7 18v112q0 11 7 18t17 7q11 0 18 -7.5t7 -17.5v-112zM256 -59q-104 0 -177.5 73.5t-73.5 177.5t73.5 177.5t177.5 73.5
t177.5 -73.5t73.5 -177.5t-73.5 -177.5t-177.5 -73.5zM256 404q-88 0 -150 -62t-62 -150t62 -150t150 -62t150 62t62 150t-62 150t-150 62zM256 -64q-106 0 -181 75t-75 181t75 181t181 75t181 -75t75 -181t-75 -181t-181 -75zM256 438q-101 0 -173.5 -72.5t-72.5 -173.5
t72.5 -173.5t173.5 -72.5t173.5 72.5t72.5 173.5t-72.5 173.5t-173.5 72.5zM256 -25q-90 0 -153.5 63.5t-63.5 153.5t63.5 153.5t153.5 63.5t153.5 -63.5t63.5 -153.5t-63.5 -153.5t-153.5 -63.5zM256 399q-86 0 -146.5 -60.5t-60.5 -146.5t60.5 -146.5t146.5 -60.5
t146.5 60.5t60.5 146.5t-60.5 146.5t-146.5 60.5z" />
    <glyph glyph-name="uniE02D" unicode="&#xe02d;" horiz-adv-x="514" 
d="M257 11v-1l-257 257l45 45l212 -212l212 212l45 -45l-256 -257z" />
    <glyph glyph-name="uniE02E" unicode="&#xe02e;" horiz-adv-x="514" 
d="M258 312l256 -256l-45 -46l-212 212l-212 -212l-45 46l257 256h1z" />
    <glyph glyph-name="uniE02F" unicode="&#xe02f;" horiz-adv-x="309" 
d="M279 -64l-279 257l279 255l30 -32l-244 -223l244 -225z" />
    <glyph glyph-name="uniE030" unicode="&#xe030;" horiz-adv-x="309" 
d="M30 -64l-30 32l244 225l-244 223l30 32l279 -255z" />
    <glyph glyph-name="uniE031" unicode="&#xe031;" horiz-adv-x="461" 
d="M308 169l6 16q5 16 8.5 24.5t12 24t16 23.5t19 14t24.5 4q21 -3 33 -24t8 -52l-3 -36q-4 -36 -7 -52.5t-12.5 -44t-24.5 -44.5q-9 -10 -15.5 -17t-12.5 -12l-9 -7.5t-8.5 -3.5t-7.5 -1h-9.5h-10.5q-14 0 -62 14t-63 14t-59.5 -32.5t-59.5 -32.5q-21 0 -28.5 10t-7.5 30
q0 16 43.5 48t87.5 58q17 10 36.5 10.5t41 -5.5t23.5 -6q5 -1 10.5 4.5t10 16t7.5 20t7 22t6 17.5zM255 290q-15 13 -34 15h-2q-13 0 -22 -3q-14 -3 -16 2q-1 4 3 6q10 6 19 9t22 3h7q1 0 4 -0.5t4 -0.5q5 0 11 2q21 4 28 22q4 10 4 20q0 5 -2 11q-4 20 -17 33q-9 9 -23 19
q-15 9 -30 11q-4 1 -13 1q-18 0 -28 -6q-14 -6 -26 -22q-12 -14 -14 -36v-1q0 -15 3 -24q3 -14 -3 -17q-3 -1 -5 3q-3 5 -8 20q-4 12 -4 23v8q0 1 0.5 3.5t0.5 3.5q0 10 -1 13q-3 19 -22 28q-13 5 -18 5t-11 -2q-21 -4 -32 -17q-9 -9 -18 -25q-8 -13 -10 -31q-2 -8 -2 -14
q0 -13 6 -29q7 -16 22 -27q15 -13 33 -15h2q14 0 23 3h2h2q2 -1 3 -1q5 -1 6 -7q-10 -6 -19 -9q-12 -4 -23 -4q-1 0 -3.5 0.5t-3.5 0.5h-7q-9 0 -12 -1q-19 -3 -27 -23q-4 -10 -4 -19t1 -12q4 -20 17 -33q9 -9 23 -19q13 -8 30 -10q8 -2 13 -2q17 0 29 7q14 6 26 22
q12 14 14 35v2q0 14 -3 23q-3 15 2 17q3 1 5 -2q5 -8 9 -21q4 -12 4 -23q0 -1 -0.5 -3.5t-0.5 -3.5v-8q0 -9 1 -12q4 -20 21 -29q10 -4 19 -4q8 0 11 1q20 4 32 18q10 10 18 24q8 13 10 32q2 8 2 13q0 14 -8.5 31t-19.5 26zM406 405q22 -1 38 -17t16 -39v-2q0 -1 0.5 -1
t0.5 -1q0 -23 -16.5 -39t-38.5 -16t-38 16t-16 39v2v2q0 23 16 39t38 17z" />
    <glyph glyph-name="uniE032" unicode="&#xe032;" 
d="M277 201l90 -90l-30 -30l-102 102v180h42v-162zM256 448q106 0 181 -75t75 -181t-75 -181t-181 -75t-181 75t-75 181t75 181t181 75zM256 -21q88 0 150.5 62.5t62.5 150.5t-62.5 150.5t-150.5 62.5t-150.5 -62.5t-62.5 -150.5t62.5 -150.5t150.5 -62.5z" />
    <glyph glyph-name="uniE033" unicode="&#xe033;" 
d="M512 417l-225 -225l225 -225l-31 -31l-225 225l-225 -225l-31 31l225 225l-225 225l31 31l225 -225l225 225z" />
    <glyph glyph-name="uniE034" unicode="&#xe034;" horiz-adv-x="439" 
d="M5 15q-13 13 0 25l189 189l-189 188q-13 13 0 26t26 0l188 -189l189 189q13 13 26 0t0 -26l-189 -188l189 -189q12 -12 0 -25q-6 -6 -13 -6t-13 6l-189 188l-188 -188q-6 -6 -13 -6t-13 6z" />
    <glyph glyph-name="uniE035" unicode="&#xe035;" horiz-adv-x="513" 
d="M4 -59q-9 17 0 33l218 218l-218 218q-9 16 0 33q17 9 33 0l218 -223l223 219q4 7 12.5 7t15.5 -7q7 -4 7 -13t-7 -16l-218 -218l209 -223q7 -4 7 -12.5t-7 -15.5q-5 -5 -15 -5q-9 0 -14 5l-218 218l-218 -218q-5 -5 -14 -5t-14 5z" />
    <glyph glyph-name="uniE036" unicode="&#xe036;" horiz-adv-x="461" 
d="M363 422l98 -98l-132 -132l132 -132l-98 -98l-133 132l-132 -132l-98 98l132 132l-132 132l98 98l132 -132z" />
    <glyph glyph-name="uniE037" unicode="&#xe037;" 
d="M65 139q21 -21 52.5 -21t52.5 21l30 -30q-34 -34 -83 -34t-83 34q-34 35 -34 83t34 83t83 35t83 -35l-30 -30q-22 22 -52.5 22t-52.5 -22t-22 -53t22 -53zM399 275q35 -35 35 -83t-35 -83q-34 -34 -83 -34t-83 34q-35 35 -35 83t35 83t83 35t83 -35zM369 139q22 22 22 53
t-22 53q-24 22 -53 22q-31 0 -53 -22t-22 -53t22 -53t53 -22t53 22zM482 36h30v-32h-108l70 70q11 11 0 22q-4 4 -11 4t-12 -4q-4 -4 -4 -10h-32q0 19 14 33q13 13 34 13t34 -13q14 -14 14 -34t-14 -34z" />
    <glyph glyph-name="uniE038" unicode="&#xe038;" 
d="M134 -45q-8 0 -15 7q-16 16 0 32l114 108q3 5 14 5h175q19 0 33 15.5t14 35.5v200q0 18 -14 32.5t-33 14.5h-332q-17 0 -32 -15t-15 -32v-200q0 -19 15 -35t32 -16h23q10 0 17 -6t7 -16q0 -9 -7 -15t-17 -6h-23q-37 0 -63.5 28t-26.5 66v200q0 37 26.5 63.5t63.5 26.5
h332q37 0 63.5 -26.5t26.5 -63.5v-200q0 -37 -27 -65.5t-63 -28.5h-166l-107 -105q-2 -4 -15 -4z" />
    <glyph glyph-name="uniE039" unicode="&#xe039;" 
d="M245 121l54 18v-32h-54v14zM118 121v-14h-54v32zM224 121v-14q0 -11 -8 -19t-19 -8h-32q-11 0 -18.5 8t-7.5 19v14h85zM363 123v-144h-86v42h-192v-42h-85v144l20 60l26 17l29 56h214l28 -56l26 -17zM43 116v-52h277v52l-13 39l-23 16l-21 42h-163l-21 -42l-23 -16z
M512 183v-55h-85v43h-41l-14 43h97v52l-13 39l-23 15l-21 43h-162l-22 -43l-23 -15l-5 -17h-45l14 44l26 17l28 56h215l28 -56l26 -17l20 -60v-89z" />
    <glyph glyph-name="uniE03A" unicode="&#xe03a;" 
d="M245 121l54 18v-32h-54v14zM118 121v-14h-54v32zM224 121v-14q0 -11 -8 -19t-19 -8h-32q-11 0 -18.5 8t-7.5 19v14h85zM363 123v-144h-86v42h-192v-42h-85v144l20 60l26 17l29 56h214l28 -56l26 -17zM43 116v-52h277v52l-13 39l-23 16l-21 42h-163l-21 -42l-23 -16z
M512 183v-55h-85v43h-41l-14 43h97v52l-13 39l-23 15l-21 43h-162l-22 -43l-23 -15l-5 -17h-45l14 44l26 17l28 56h215l28 -56l26 -17l20 -60v-89z" />
    <glyph glyph-name="uniE03B" unicode="&#xe03b;" 
d="M268 289q24 0 41.5 -16t20.5 -40l11 -118q3 -28 -16 -50q-1 -1 -13 -10v-71q0 -11 -8 -19t-19 -8h-13q-11 0 -19 8t-8 19v60h-148v-60q0 -11 -8 -19t-19 -8h-14q-11 0 -19 8t-8 19v71q-8 6 -12 10q-20 23 -17 50l12 118q2 24 20 40t42 16h194zM55 229l-12 -118
q-1 -8 6 -17q6 -7 16 -7h211q11 0 17 7q6 8 5 17l-11 118q-2 17 -19 17h-194q-17 0 -19 -17zM511 253q3 -29 -16 -50q-4 -4 -12 -10v-71q0 -11 -8 -19t-19 -8h-14q-11 0 -19 8t-8 19v60h-31q-9 0 -15 6t-6 15t6 15t15 6h63q10 0 16 8q7 9 6 17l-12 118q-2 17 -19 17h-194
q-17 0 -19 -17l-3 -28q-2 -21 -23 -19t-19 23l3 28q2 24 19.5 40t41.5 16h194q24 0 42 -16t20 -40z" />
    <glyph glyph-name="uniE03C" unicode="&#xe03c;" 
d="M245 121l54 18v-32h-54v14zM118 121v-14h-54v32zM224 121v-14q0 -11 -8 -19t-19 -8h-32q-11 0 -18.5 8t-7.5 19v14h85zM363 123v-144h-86v42h-192v-42h-85v144l20 60l26 17l29 56h214l28 -56l26 -17zM43 116v-52h277v52l-13 39l-23 16l-21 42h-163l-21 -42l-23 -16z
M512 183v-55h-85v43h-41l-14 43h97v52l-13 39l-23 15l-21 43h-162l-22 -43l-23 -15l-5 -17h-45l14 44l26 17l28 56h215l28 -56l26 -17l20 -60v-89z" />
    <glyph glyph-name="uniE03D" unicode="&#xe03d;" 
d="M149 -36l-30 30l128 128h222v256h-426v-256h85v-43h-128v341h512v-341h-247z" />
    <glyph glyph-name="uniE03E" unicode="&#xe03e;" 
d="M448 331h64v-22v-21v-277v-22v-21h-21h-469h-1h-21v43v277v43h299v42h-43v43h235v-43h-43v-42zM469 11v57l-32 32l-15 -15l-30 -31l-30 31l-15 15l-15 -15l-23 -23l-7 -8l-23 23l-7 8l-16 15l-15 -15l-30 -31l-30 31l-15 15l-15 -15l-30 -31l-31 31l-15 15l-32 -33v-56
h426zM469 128v160h-42h-1h-21v43v42v0h-64v-85h1h-1h-298v-161l2 3l30 30l31 -30l15 -15l15 15l30 30l30 -30l15 -15l15 15l30 30l31 -30l15 -15l15 15l30 30l30 -30l15 -15l15 15l30 30l31 -30z" />
    <glyph glyph-name="uniE03F" unicode="&#xe03f;" 
d="M0 9v72v222v72h512v-72v-222v-72h-512zM45 329v-26v-222v-27h422v27v222v27zM43 213v46h425v-46h-425zM93 148q0 13 2 15t15 2h118q13 0 15.5 -2t2.5 -15t-2.5 -15.5t-15.5 -2.5h-118q-13 0 -15 2.5t-2 15.5z" />
    <glyph glyph-name="uniE040" unicode="&#xe040;" 
d="M441 9h-370q-29 0 -50 21.5t-21 50.5v222q0 29 21 50.5t50 21.5h370q29 0 50 -21.5t21 -50.5v-222q0 -29 -21 -50.5t-50 -21.5zM71 329q-10 0 -17.5 -7.5t-8.5 -18.5v-222q0 -11 7.5 -19t18.5 -8h370q11 0 18.5 8t7.5 19v222q0 11 -7.5 19t-18.5 8zM43 213v46h425v-46
h-425zM93 148q0 13 2 15t15 2h118q13 0 15.5 -2t2.5 -15t-2.5 -15.5t-15.5 -2.5h-118q-13 0 -15 2.5t-2 15.5z" />
    <glyph glyph-name="uniE041" unicode="&#xe041;" horiz-adv-x="272" 
d="M255 -57q-7 0 -12 5l-243 243l245 245q11 11 22 0q11 -12 0 -23l-222 -222l221 -221q11 -11 0 -22q-5 -5 -11 -5z" />
    <glyph glyph-name="uniE042" unicode="&#xe042;" horiz-adv-x="272" 
d="M17 -57q-6 0 -11 5q-11 11 0 22l221 221l-222 222q-11 11 0 23q11 11 22 0l245 -245l-243 -243q-5 -5 -12 -5z" />
    <glyph glyph-name="uniE043" unicode="&#xe043;" horiz-adv-x="501" 
d="M251 443l233 -234l17 -17l-250 -251l-17 17l-234 234l17 17l217 217zM306 184v-60l84 84l-84 84v-60h-120q-10 0 -17 -7t-7 -17v-96h48v72h96z" />
    <glyph glyph-name="uniE044" unicode="&#xe044;" horiz-adv-x="491" 
d="M483 209q7 -7 7 -17t-7 -17l-220 -221q-7 -8 -17 -8t-18 8l-221 221q-17 17 0 34l221 221q8 8 18 8t17 -8zM298 130l86 90l-86 89v-64h-124q-10 0 -17.5 -7.5t-7.5 -17.5v-103h50v77h99v-64z" />
    <glyph glyph-name="uniE045" unicode="&#xe045;" horiz-adv-x="503" 
d="M483 135q8 0 14.5 -7t5.5 -15v-146q0 -9 -8 -20t-16 -11h-459q-8 0 -14 8.5t-6 17.5q0 8 4.5 15.5t10.5 7.5l98 31l-27 77q-25 5 -42.5 24t-21.5 44l-20 126q-2 5 -2 15q0 27 16 48.5t41 29.5l190 64q14 4 25 4q48 0 72 -42l62 -104q13 -16 13 -42q0 -17 -9 -37l36 -99
l29 9q2 2 8 2zM64 170q1 -15 13 -25t27 -10q11 0 15 2l230 84q28 9 28 39q0 14 -6 22l-62 104q-11 20 -37 20q-8 0 -12 -2l-189 -62q-12 -4 -20.5 -15.5t-8.5 -24.5v-8zM168 112l26 -66l172 55l-28 73z" />
    <glyph glyph-name="uniE046" unicode="&#xe046;" horiz-adv-x="503" 
d="M483 135q8 0 14.5 -7t5.5 -15v-146q0 -9 -8 -20t-16 -11h-459q-8 0 -14 8.5t-6 17.5q0 8 4.5 15.5t10.5 7.5l98 31l-27 77q-25 5 -42.5 24t-21.5 44l-20 126q-2 5 -2 15q0 27 16 48.5t41 29.5l190 64q14 4 25 4q48 0 72 -42l62 -104q13 -16 13 -42q0 -17 -9 -37l36 -99
l29 9q2 2 8 2zM64 170q1 -15 13 -25t27 -10q11 0 15 2l230 84q28 9 28 39q0 14 -6 22l-62 104q-11 20 -37 20q-8 0 -12 -2l-189 -62q-12 -4 -20.5 -15.5t-8.5 -24.5v-8zM168 112l26 -66l172 55l-28 73z" />
    <glyph glyph-name="uniE047" unicode="&#xe047;" horiz-adv-x="503" 
d="M483 135q8 0 14.5 -7t5.5 -15v-146q0 -9 -8 -20t-16 -11h-459q-8 0 -14 8.5t-6 17.5q0 8 4.5 15.5t10.5 7.5l98 31l-27 77q-25 5 -42.5 24t-21.5 44l-20 126q-2 5 -2 15q0 27 16 48.5t41 29.5l190 64q14 4 25 4q48 0 72 -42l62 -104q13 -16 13 -42q0 -17 -9 -37l36 -99
l29 9q2 2 8 2zM64 170q1 -15 13 -25t27 -10q11 0 15 2l230 84q28 9 28 39q0 14 -6 22l-62 104q-11 20 -37 20q-8 0 -12 -2l-189 -62q-12 -4 -20.5 -15.5t-8.5 -24.5v-8zM168 112l26 -66l172 55l-28 73z" />
    <glyph glyph-name="uniE048" unicode="&#xe048;" horiz-adv-x="510" 
d="M42 97q-42 24 -42 75v9l22 192q4 32 27.5 53.5t56.5 21.5h300q33 0 56.5 -21.5t27.5 -53.5l20 -194v-9q0 -49 -42 -73v-119q0 -18 -12 -30t-30 -12h-22q-18 0 -30 12t-12 30v106h-214v-106q0 -18 -12 -30t-30 -12h-22q-18 0 -30 12t-12 30v119zM42 176q0 -4 2 -6
q0 -18 12 -30t30 -12h340q18 0 30 12t12 30v6l-22 192q-1 16 -13 27t-29 11h-298q-17 0 -29 -11t-13 -27z" />
    <glyph glyph-name="uniE049" unicode="&#xe049;" horiz-adv-x="503" 
d="M483 135q8 0 14.5 -7t5.5 -15v-146q0 -9 -8 -20t-16 -11h-459q-8 0 -14 8.5t-6 17.5q0 8 4.5 15.5t10.5 7.5l98 31l-27 77q-25 5 -42.5 24t-21.5 44l-20 126q-2 5 -2 15q0 27 16 48.5t41 29.5l190 64q14 4 25 4q48 0 72 -42l62 -104q13 -16 13 -42q0 -17 -9 -37l36 -99
l29 9q2 2 8 2zM64 170q1 -15 13 -25t27 -10q11 0 15 2l230 84q28 9 28 39q0 14 -6 22l-62 104q-11 20 -37 20q-8 0 -12 -2l-189 -62q-12 -4 -20.5 -15.5t-8.5 -24.5v-8zM168 112l26 -66l172 55l-28 73z" />
    <glyph glyph-name="uniE04A" unicode="&#xe04a;" horiz-adv-x="503" 
d="M483 135q8 0 14.5 -7t5.5 -15v-146q0 -9 -8 -20t-16 -11h-459q-8 0 -14 8.5t-6 17.5q0 8 4.5 15.5t10.5 7.5l98 31l-27 77q-25 5 -42.5 24t-21.5 44l-20 126q-2 5 -2 15q0 27 16 48.5t41 29.5l190 64q14 4 25 4q48 0 72 -42l62 -104q13 -16 13 -42q0 -17 -9 -37l36 -99
l29 9q2 2 8 2zM64 170q1 -15 13 -25t27 -10q11 0 15 2l230 84q28 9 28 39q0 14 -6 22l-62 104q-11 20 -37 20q-8 0 -12 -2l-189 -62q-12 -4 -20.5 -15.5t-8.5 -24.5v-8zM168 112l26 -66l172 55l-28 73z" />
    <glyph glyph-name="uniE04B" unicode="&#xe04b;" horiz-adv-x="503" 
d="M483 135q8 0 14.5 -7t5.5 -15v-146q0 -9 -8 -20t-16 -11h-459q-8 0 -14 8.5t-6 17.5q0 8 4.5 15.5t10.5 7.5l98 31l-27 77q-25 5 -42.5 24t-21.5 44l-20 126q-2 5 -2 15q0 27 16 48.5t41 29.5l190 64q14 4 25 4q48 0 72 -42l62 -104q13 -16 13 -42q0 -17 -9 -37l36 -99
l29 9q2 2 8 2zM64 170q1 -15 13 -25t27 -10q11 0 15 2l230 84q28 9 28 39q0 14 -6 22l-62 104q-11 20 -37 20q-8 0 -12 -2l-189 -62q-12 -4 -20.5 -15.5t-8.5 -24.5v-8zM168 112l26 -66l172 55l-28 73z" />
    <glyph glyph-name="uniE04C" unicode="&#xe04c;" 
d="M0 141v102h102v-102h-102zM205 141v102h102v-102h-102zM410 141v102h102v-102h-102z" />
    <glyph glyph-name="uniE04D" unicode="&#xe04d;" 
d="M469 129h43v-193h-36h-7h-426h-22h-21v193h43v-149h426v149zM392 202l-105 -105l-30 -31h-1l-30 30v1l-105 105l30 30l84 -84v300h43v-300l84 84z" />
    <glyph glyph-name="uniE04E" unicode="&#xe04e;" horiz-adv-x="468" 
d="M426 -64h-384q-18 0 -30 12t-12 30v106q0 18 12 30t30 12v-42v-106h384v106v42q18 0 30 -12t12 -30v-106q1 -18 -11.5 -30t-30.5 -12zM355 208q7 -5 8 -14.5t-6 -14.5l-106 -128q-1 -1 -3 -1.5t-3 -1.5l-2 -2q-4 -2 -9 -2q-7 0 -9 2l-2 2q-1 1 -2.5 1.5t-2.5 1.5
l-106 128q-7 7 -6.5 15.5t7.5 13.5q17 13 30 -3l69 -82v303q0 9 6.5 15.5t15.5 6.5q22 0 22 -22v-303l69 82q13 16 30 3z" />
    <glyph glyph-name="uniE04F" unicode="&#xe04f;" horiz-adv-x="215" 
d="M126 145q-9 -9 -18 -9q-11 0 -20 9l-85 94q-3 3 -3 7q0 9 9 9q3 0 6 -3l86 -94q1 -3 6 -3q4 0 7 3l86 94q2 3 6 3q9 0 9 -9q0 -4 -3 -7z" />
    <glyph glyph-name="uniE050" unicode="&#xe050;" horiz-adv-x="118" 
d="M9 175q-9 9 -9 20t9 20l93 85q3 3 6 3q9 0 9 -9q0 -5 -2 -7l-94 -86q-3 -1 -3 -6q0 -4 4 -7l94 -86q2 -1 2 -6q0 -9 -9 -9q-3 0 -6 3z" />
    <glyph glyph-name="uniE051" unicode="&#xe051;" horiz-adv-x="117" 
d="M108 215q9 -9 9 -20t-9 -20l-93 -85q-3 -3 -6 -3q-9 0 -9 9q0 4 3 8l94 86q2 1 2 6q0 4 -2 6l-94 86q-3 2 -3 6q0 10 9 10q3 0 5 -3z" />
    <glyph glyph-name="uniE052" unicode="&#xe052;" horiz-adv-x="215" 
d="M88 245q9 9 19 9t19 -9l86 -94q3 -3 3 -6q0 -9 -9 -9q-4 0 -6 2l-86 94q-2 3 -7 3q-3 0 -6 -3l-86 -94q-1 -2 -6 -2q-9 0 -9 9q0 3 3 6z" />
    <glyph glyph-name="uniE053" unicode="&#xe053;" 
d="M256 448q106 0 181 -75t75 -181t-75 -181t-181 -75t-181 75t-75 181t75 181t181 75zM256 405q-83 0 -143.5 -55.5t-68.5 -136.5h84l64 42h128l64 -42h84q-8 81 -68.5 136.5t-143.5 55.5zM235 -20v83l-128 107l-63 1q8 -76 61.5 -129.5t129.5 -61.5zM277 -20
q76 8 130 61.5t61 129.5h-63v-1l-128 -107v-83z" />
    <glyph glyph-name="uniE054" unicode="&#xe054;" horiz-adv-x="503" 
d="M483 135q8 0 14.5 -7t5.5 -15v-146q0 -9 -8 -20t-16 -11h-459q-8 0 -14 8.5t-6 17.5q0 8 4.5 15.5t10.5 7.5l98 31l-27 77q-25 5 -42.5 24t-21.5 44l-20 126q-2 5 -2 15q0 27 16 48.5t41 29.5l190 64q14 4 25 4q48 0 72 -42l62 -104q13 -16 13 -42q0 -17 -9 -37l36 -99
l29 9q2 2 8 2zM64 170q1 -15 13 -25t27 -10q11 0 15 2l230 84q28 9 28 39q0 14 -6 22l-62 104q-11 20 -37 20q-8 0 -12 -2l-189 -62q-12 -4 -20.5 -15.5t-8.5 -24.5v-8zM168 112l26 -66l172 55l-28 73z" />
    <glyph glyph-name="uniE055" unicode="&#xe055;" 
d="M256 448q106 0 181 -75t75 -181t-75 -181t-181 -75t-181 75t-75 181t75 181t181 75zM256 405q-83 0 -143.5 -55.5t-68.5 -136.5h84l64 42h128l64 -42h84q-8 81 -68.5 136.5t-143.5 55.5zM235 -20v83l-128 107l-63 1q8 -76 61.5 -129.5t129.5 -61.5zM277 -20
q76 8 130 61.5t61 129.5h-63v-1l-128 -107v-83z" />
    <glyph glyph-name="uniE056" unicode="&#xe056;" 
d="M256 448q106 0 181 -75t75 -181t-75 -181t-181 -75t-181 75t-75 181t75 181t181 75zM256 406q-84 0 -144 -55.5t-68 -138.5h82q13 0 20 7l24 21q16 16 42 16h86q24 0 42 -15l24 -20q9 -7 20 -7h84q-8 82 -68.5 137t-143.5 55zM44 170q7 -76 61 -130t131 -62v73
q0 16 -11 24l-40 37q-1 1 -4 3.5t-4 3.5l-36 40q-8 11 -24 11h-73zM278 -20q76 7 130 61t62 131h-73q-16 0 -24 -11l-37 -40q-1 -1 -3.5 -4t-3.5 -4l-40 -36q-11 -8 -11 -24v-73z" />
    <glyph glyph-name="uniE057" unicode="&#xe057;" horiz-adv-x="498" 
d="M389 448l109 -111l-109 -112l-33 33l77 79l-77 78zM109 448l33 -33l-77 -78l77 -79l-33 -33l-109 112z" />
    <glyph glyph-name="uniE058" unicode="&#xe058;" horiz-adv-x="515" 
d="M237 22q-73 -9 -138 74q-64 40 -67 96q-9 75 86 147l3 2q13 9 26.5 16.5t51.5 21t76.5 17.5t97 -4.5t117.5 -33.5l25 -9l-16 -23q-63 -89 -89 -150q-11 -26 -30 -55.5t-57.5 -62.5t-79.5 -39zM278 355q-27 -5 -44 -9q-26 -6 -48.5 -15.5t-31.5 -16.5l-10 -7
q-78 -65 -74 -112q1 -19 14 -35t26 -22l12 -7l3 -3l3 -3q54 -70 106 -61q42 7 78 49t53 82q20 51 80 138q-88 31 -167 22zM29 -14l-29 30l244 244l30 -29z" />
    <glyph glyph-name="uniE059" unicode="&#xe059;" 
d="M180 -15h332v-43h-512v43v94l363 363l137 -137zM439 305l-76 76l-247 -247l76 -76zM43 61v-76h76l43 43l-77 76z" />
    <glyph glyph-name="uniE05A" unicode="&#xe05a;" 
d="M0 373h512v-362h-512v362zM437 331h-362l181 -163zM43 53h426v249l-213 -191l-213 191v-249z" />
    <glyph glyph-name="uniE05B" unicode="&#xe05b;" 
d="M448 373q27 0 45.5 -18.5t18.5 -45.5v-234q0 -27 -18.5 -45.5t-45.5 -18.5h-384q-27 0 -45.5 18.5t-18.5 45.5v234q0 27 18.5 45.5t45.5 18.5h384zM437 331h-362l168 -145q14 -9 28 0zM469 75l-2 226l-170 -147q-17 -16 -42 -16t-42 16l-170 149v-228q0 -22 21 -22h384
q21 0 21 22z" />
    <glyph glyph-name="uniE05C" unicode="&#xe05c;" horiz-adv-x="68" 
d="M68 77q0 -13 -10.5 -23.5t-23.5 -10.5q-14 0 -24 9.5t-10 22.5q0 14 10 24t24 10t24 -9.5t10 -22.5zM64 177q0 -12 -9 -21t-21 -9q-13 0 -21.5 8t-8.5 22v134q0 14 9 22t21 8q13 0 21.5 -8t8.5 -22v-134z" />
    <glyph glyph-name="uniE05D" unicode="&#xe05d;" 
d="M0 378q47 -31 101.5 -32t104.5 15.5l100 33t104.5 15.5t101.5 -32v-372q-47 31 -101.5 32t-104.5 -15.5l-100 -33t-104.5 -15.5t-101.5 32v372zM396 84q38 2 69 -9v70q-31 11 -69 9v70q38 2 69 -9v70q-31 11 -69 9v70q-33 -1 -70 -11v-70q-38 -10 -70 -21v70
q-43 -15 -70 -22v-69q-37 -10 -70 -11v70q-38 -2 -69 9v-70q31 -11 69 -9v-70q-38 -2 -69 9v-70q31 -11 69 -9v-70q33 1 70 11v70q38 10 70 21v-70q43 15 70 22v69q37 10 70 11v-70zM116 90v70q33 1 70 11v-70q-37 -10 -70 -11zM256 262v-70q-32 -11 -70 -21v70q38 10 70 21
zM256 122v70q32 11 70 21v-70q-38 -10 -70 -21zM396 294v-70q-33 -1 -70 -11v70q37 10 70 11z" />
    <glyph glyph-name="uniE05E" unicode="&#xe05e;" 
d="M0 379q47 -31 101.5 -32t104.5 15.5l100 33t104.5 15.5t101.5 -32v-370q-47 31 -101.5 32t-104.5 -15.5l-100 -33t-104.5 -15.5t-101.5 32v370zM396 88q37 2 69 -10v69q-34 10 -69 9v70q32 1 69 -10v70q-34 10 -69 9v68q-38 -2 -70 -10v-69q-38 -10 -70 -21v70
q-43 -15 -70 -22v-69q-37 -10 -70 -11v69q-36 -1 -69 10v-69q37 -11 69 -10v-69q-32 -1 -69 10v-70q34 -10 69 -9v-70q33 1 70 11v69q27 7 70 22v-70q43 15 70 22v68q37 10 70 11v-68zM116 93v69q33 1 70 11v-69q-37 -10 -70 -11zM256 263v-69q-32 -11 -70 -21v69q7 2 70 21
zM256 125v69q32 11 70 21v-69q-38 -10 -70 -21zM396 295v-69q-33 -1 -70 -11v69q37 10 70 11z" />
    <glyph glyph-name="uniE05F" unicode="&#xe05f;" horiz-adv-x="503" 
d="M483 135q8 0 14.5 -7t5.5 -15v-146q0 -9 -8 -20t-16 -11h-459q-8 0 -14 8.5t-6 17.5q0 8 4.5 15.5t10.5 7.5l98 31l-27 77q-25 5 -42.5 24t-21.5 44l-20 126q-2 5 -2 15q0 27 16 48.5t41 29.5l190 64q14 4 25 4q48 0 72 -42l62 -104q13 -16 13 -42q0 -17 -9 -37l36 -99
l29 9q2 2 8 2zM64 170q1 -15 13 -25t27 -10q11 0 15 2l230 84q28 9 28 39q0 14 -6 22l-62 104q-11 20 -37 20q-8 0 -12 -2l-189 -62q-12 -4 -20.5 -15.5t-8.5 -24.5v-8zM168 112l26 -66l172 55l-28 73z" />
    <glyph glyph-name="uniE060" unicode="&#xe060;" 
d="M414 -51l-158 114l-158 -114l60 186l-158 114h196l60 186l60 -186h196l-158 -114zM130 207l78 -56l-30 -91l78 56l78 -56l-30 91l78 56h-96l-30 91l-30 -91h-96z" />
    <glyph glyph-name="uniE061" unicode="&#xe061;" 
d="M171 320v43h106v-43h-106zM171 256v43h170v-43h-170zM427 213h85v-277h-512v277h85v235h342v-235zM128 405v-192h256v192h-256zM469 -21v192h-42h-342h-42v-192h426zM341 129q32 0 59 -27t27 -59v-22h-86v22q0 16 -13 29.5t-29 13.5h-86q-16 0 -29 -14t-13 -29v-22h-86
v22q0 32 27 59t59 27h170z" />
    <glyph glyph-name="uniE062" unicode="&#xe062;" 
d="M192 320q-21 0 -21 21q0 22 21 22h64q21 0 21 -22q0 -21 -21 -21h-64zM320 299q21 0 21 -22q0 -21 -21 -21h-128q-21 0 -21 21q0 22 21 22h128zM341 128q35 0 60.5 -25t25.5 -60q0 -22 -22 -22h-42q-22 0 -22 22q0 17 -12.5 29.5t-29.5 12.5h-86q-17 0 -29.5 -12.5
t-12.5 -29.5q0 -22 -22 -22h-42q-22 0 -22 22q0 35 25.5 60t60.5 25h21h128h21zM448 213q27 0 45.5 -18.5t18.5 -45.5v-64v-21v-64q0 -27 -18.5 -45.5t-45.5 -18.5h-384q-27 0 -45.5 18.5t-18.5 45.5v64v21v64q0 27 18.5 45.5t45.5 18.5h21v171q0 27 18.5 45.5t45.5 18.5
h214q27 0 45.5 -18.5t18.5 -45.5v-171h21zM128 384v-171h256v171q0 21 -21 21h-214q-21 0 -21 -21zM469 64v21v64q0 22 -21 22h-384q-21 0 -21 -22v-64v-21v-64q0 -21 21 -21h384q21 0 21 21v64z" />
    <glyph glyph-name="uniE063" unicode="&#xe063;" horiz-adv-x="511" 
d="M358 289v-72l52 51v72l-3 -3zM0 369v-410h410v237l-52 -52v-134h-307v308h264l51 51h-366zM475 405l-307 -307l36 -36l307 307zM240 98l-126 127l-37 -36l127 -127z" />
    <glyph glyph-name="uniE064" unicode="&#xe064;" horiz-adv-x="498" 
d="M77 380q-32 0 -54.5 -22.5t-22.5 -53.5v-256q0 -32 23 -54.5t54 -22.5h256q31 0 54 22.5t23 54.5v84q0 17 -16 23.5t-28 -5.5q-8 -8 -8 -18v-59q0 -21 -15 -36t-36 -15h-205q-21 0 -36 15t-15 36v205q0 21 15 36t36 15h197q16 0 22 14q6 13 -1 25t-21 12h-222zM202 147
l-73 72q-7 7 -18 7t-18 -7t-7 -18t7 -18l73 -72l18 -18q8 -7 18 -7t18 7l18 18l253 253q7 8 7 18t-7 18t-18 8t-18 -8z" />
    <glyph glyph-name="uniE065" unicode="&#xe065;" 
d="M0 327v108h108v-108h-108zM0 138v108h108v-108h-108zM0 -51v108h108v-108h-108zM189 354v54h323v-54h-323zM189 165v54h323v-54h-323zM189 -24v54h323v-54h-323z" />
    <glyph glyph-name="uniE066" unicode="&#xe066;" horiz-adv-x="421" 
d="M399 304h-267q-9 0 -15 6t-6 15t6 15.5t15 6.5h267q9 0 15.5 -6.5t6.5 -15.5t-6.5 -15t-15.5 -6zM399 165h-267q-8 0 -14.5 6.5t-6.5 15.5t6 15t15 6h267q9 0 15.5 -6t6.5 -15t-6.5 -15.5t-15.5 -6.5zM399 26h-267q-8 0 -14.5 6t-6.5 16q0 9 6 15t15 6h267q9 0 15.5 -6
t6.5 -15t-6.5 -15.5t-15.5 -6.5zM399 165h-267q-8 0 -14.5 6.5t-6.5 15.5t6 15t15 6h267q9 0 15.5 -6t6.5 -15t-6.5 -15.5t-15.5 -6.5zM36 360q14 0 24 -10.5t10 -26.5q0 -14 -10 -24t-24 -10t-25 10t-11 24t11 25.5t25 11.5zM36 221q14 0 24 -10.5t10 -26.5
q0 -14 -10.5 -24t-23.5 -10q-14 0 -25 10t-11 24q0 16 11 26.5t25 10.5zM36 82q14 0 24 -10t10 -26q0 -13 -10 -23.5t-24 -10.5t-25 10t-11 24q0 15 10.5 25.5t25.5 10.5z" />
    <glyph glyph-name="uniE067" unicode="&#xe067;" 
d="M512 406l-214 -214l214 -214l-42 -42l-214 214l-214 -214l-42 42l214 214l-214 214l42 42l214 -214l214 214z" />
    <glyph glyph-name="uniE068" unicode="&#xe068;" 
d="M512 -109h-512v557h512v-557zM46 -63h420v465h-420v-465zM94 171v46h46v-46h-46zM187 171v46h46v-46h-46zM280 171v46h46v-46h-46zM94 78v46h46v-46h-46zM187 78v46h46v-46h-46zM280 78v46h46v-46h-46zM94 -15v46h46v-46h-46zM187 -15v46h46v-46h-46zM280 -15v46h46v-46
h-46zM373 171v46h46v-46h-46zM94 263v93h325v-93h-325zM373 -15v139h46v-139h-46z" />
    <glyph glyph-name="uniE069" unicode="&#xe069;" horiz-adv-x="469" 
d="M384 448q35 0 60 -25t25 -60v-342q0 -35 -25 -60t-60 -25h-299q-35 0 -60 25t-25 60v342q0 35 25 60t60 25h299zM427 21v342q0 18 -12.5 30t-30.5 12h-299q-18 0 -30 -12t-12 -30v-342q0 -18 12 -30t30 -12h299q18 0 30.5 12t12.5 30zM85 213q0 9 6.5 15.5t15.5 6.5
t15 -6.5t6 -15.5t-6 -15t-15 -6t-15.5 6t-6.5 15zM85 128q0 9 6.5 15t15.5 6t15 -6t6 -15t-6 -15t-15 -6t-15.5 6t-6.5 15zM85 43q0 9 6.5 15t15.5 6t15 -6t6 -15t-6 -15.5t-15 -6.5t-15.5 6.5t-6.5 15.5zM171 213q0 9 6 15.5t15 6.5t15 -6.5t6 -15.5t-6 -15t-15 -6t-15 6
t-6 15zM171 128q0 9 6 15t15 6t15 -6t6 -15t-6 -15t-15 -6t-15 6t-6 15zM171 43q0 9 6 15t15 6t15 -6t6 -15t-6 -15.5t-15 -6.5t-15 6.5t-6 15.5zM256 213q0 9 6 15.5t15 6.5t15.5 -6.5t6.5 -15.5t-6.5 -15t-15.5 -6t-15 6t-6 15zM256 128q0 9 6 15t15 6t15.5 -6t6.5 -15
t-6.5 -15t-15.5 -6t-15 6t-6 15zM256 43q0 9 6 15t15 6t15.5 -6t6.5 -15t-6.5 -15.5t-15.5 -6.5t-15 6.5t-6 15.5zM341 213q0 9 6.5 15.5t15.5 6.5t15 -6.5t6 -15.5t-6 -15t-15 -6t-15.5 6t-6.5 15zM341 43q0 -9 6.5 -15.5t15.5 -6.5t15 6.5t6 15.5v85q0 9 -6 15t-15 6
t-15.5 -6t-6.5 -15v-85zM363 277h-256q-9 0 -15.5 6.5t-6.5 15.5v42q0 9 6.5 15.5t15.5 6.5h256q9 0 15 -6.5t6 -15.5v-42q0 -9 -6 -15.5t-15 -6.5z" />
    <glyph glyph-name="uniE06A" unicode="&#xe06a;" 
d="M512 -109h-512v557h512v-557zM46 -63h420v465h-420v-465zM94 171v46h46v-46h-46zM187 171v46h46v-46h-46zM280 171v46h46v-46h-46zM94 78v46h46v-46h-46zM187 78v46h46v-46h-46zM280 78v46h46v-46h-46zM94 -15v46h46v-46h-46zM187 -15v46h46v-46h-46zM280 -15v46h46v-46
h-46zM373 171v46h46v-46h-46zM94 263v93h325v-93h-325zM373 -15v139h46v-139h-46z" />
    <glyph glyph-name="uniE06B" unicode="&#xe06b;" 
d="M331 111v15l53 19v-34h-53zM128 111v34l53 -19v-15h-53zM203 104v21h107v-21q0 -11 -8 -19.5t-19 -8.5h-54q-11 0 -18.5 8.5t-7.5 19.5zM44 295v23l39 -11v-12h-39zM86 267v-33h-33v-28h-53v110l13 39l17 11l19 39h158l30 -62l-36 1l-14 28h-118l-14 -28l-15 -11l-8 -25
v-41h54zM429 307l39 11v-23h-39v12zM499 355l13 -39v-110h-53v28h-32v33h53v41l-8 25l-15 11l-14 28h-118l-13 -28l-36 -1l30 62h157l19 -39zM443 131v-95v-57h-85v44h-203v-44h-85v57v100l19 57l25 17l28 57h229l27 -57l26 -17zM102 128v-72h309v72l-14 43l-24 17l-22 46
h-190l-22 -46l-23 -17z" />
    <glyph glyph-name="uniE06C" unicode="&#xe06c;" horiz-adv-x="559" 
d="M369 262q22 0 40 -16t20 -39l11 -108v-6q0 -30 -21 -47v-82q0 -11 -8.5 -19.5t-19.5 -8.5h-14q-11 0 -19.5 8.5t-8.5 19.5v65h-139v-65q0 -11 -8.5 -19.5t-19.5 -8.5h-14q-11 0 -19.5 8.5t-8.5 19.5v82q-21 19 -21 47q0 1 0.5 3t0.5 3l11 108q2 23 20 39t40 16h178z
M177 203l-11 -109v-1q0 -7 5 -12t12 -5h194q7 0 12 5t5 12v1l-11 109q-2 12 -14 12h-178q-12 0 -14 -12zM559 301v-5q0 -29 -23 -47v-64q0 -9 -6 -15t-15 -6h-1h-10q-9 0 -15 6t-6 15v54h-14q-10 0 -17 6.5t-7 16.5t7 16.5t17 6.5h33q10 0 10 11v1l-8 97q0 7 -8 7h-135
q-7 0 -7 -7l-7 -65q-2 -21 -23 -21h-2q-8 1 -14.5 8t-6.5 16v2l6 65q2 20 18 34.5t36 14.5h135q20 0 36 -14.5t18 -34.5zM91 285q10 0 16.5 -6.5t6.5 -16.5t-6.5 -16.5t-16.5 -6.5h-15v-54q0 -9 -6 -15t-15 -6h-11q-20 0 -20 21v65q-24 17 -24 46v5l10 98q2 20 18 34.5
t36 14.5h134q20 0 36 -14.5t18 -34.5l7 -65v-2q0 -9 -6.5 -16t-14.5 -8h-2q-21 0 -23 21l-7 65q0 7 -8 7h-134q-8 0 -8 -6l-9 -98v-1q0 -11 10 -11h34z" />
    <glyph glyph-name="uniE06D" unicode="&#xe06d;" horiz-adv-x="491" 
d="M468 336q23 -29 23 -67v-205q0 -26 -19 -45t-45 -19t-45 19t-19 45v128q0 9 -6 15.5t-15 6.5h-22v-235h43v-43h-43h-277h-43v43h43v469h277v-192h22q26 0 45 -19t19 -45v-128q0 -9 6 -15t15 -6t15 6t6 15v205q0 23 -14 40l-66 84l33 26zM278 405h-193v-149h193v149z
M278 -21v235h-193v-235h193z" />
    <glyph glyph-name="uniE06E" unicode="&#xe06e;" 
d="M149 405h-76l134 -134l-30 -30l-134 134v-76h-43v106v22v21h149v-43zM363 448h149v-21v-22v-106h-43v76l-134 -134l-30 30l134 134h-76v43zM177 143l30 -30l-134 -134h76v-43h-149v21v22v106h43v-76zM469 9v76h43v-106v-22v-21h-149v43h76l-134 134l30 30z" />
    <glyph glyph-name="uniE06F" unicode="&#xe06f;" horiz-adv-x="439" 
d="M276 295q-2 4 -2 7v91q0 7 5.5 12.5t13.5 5.5q7 0 12.5 -5.5t5.5 -12.5v-47l97 97q5 5 13 5t13 -5q13 -13 0 -26l-97 -97h47q8 0 13 -5t5 -13t-5.5 -13.5t-12.5 -5.5h-91q-3 0 -7 2q-7 3 -10 10zM31 15q-13 -13 -26 0t0 25l97 97h-47q-7 0 -12.5 5.5t-5.5 12.5
q0 8 5.5 13.5t12.5 5.5h91q3 0 7 -2q7 -3 10 -10q2 -4 2 -7v-91q0 -7 -5.5 -12.5t-13.5 -5.5t-13 5t-5 13v47zM293 46q-8 0 -13.5 5.5t-5.5 12.5v91q0 3 2 7q3 7 10 10q4 2 7 2h91q7 0 12.5 -5.5t5.5 -13.5q0 -7 -5 -12.5t-13 -5.5h-47l97 -97q12 -12 0 -25q-13 -13 -26 0
l-97 96v-47q0 -8 -5.5 -13t-12.5 -5zM102 320l-97 97q-13 13 0 26q5 5 13 5t13 -5l97 -97v47q0 7 5 12.5t13 5.5t13.5 -5.5t5.5 -12.5v-91q0 -3 -2 -7q-3 -7 -10 -10q-4 -2 -7 -2h-91q-7 0 -12.5 5.5t-5.5 13.5t5.5 13t12.5 5h47z" />
    <glyph glyph-name="uniE070" unicode="&#xe070;" horiz-adv-x="439" 
d="M437 437q2 -4 2 -7v-92q0 -8 -5.5 -13t-12.5 -5q-8 0 -13.5 5.5t-5.5 12.5v48l-115 -115q-6 -6 -13 -6t-13 6q-13 13 0 25l115 115h-47q-7 0 -12.5 5.5t-5.5 13.5t5.5 13t12.5 5h92q5 0 7 -1q5 -3 9 -10zM152 187q12 13 25 0t0 -26l-115 -115h48q7 0 12.5 -5.5t5.5 -13.5
q0 -7 -5 -12.5t-13 -5.5h-92q-3 0 -7 2q-7 4 -10 9q-1 2 -1 7v92q0 7 5 12.5t13 5.5t13.5 -5.5t5.5 -12.5v-47zM421 137q7 0 12.5 -5.5t5.5 -12.5v-92q0 -3 -2 -7q-3 -6 -9 -9q-4 -2 -7 -2h-92q-7 0 -12.5 5.5t-5.5 12.5q0 8 5.5 13.5t12.5 5.5h47l-115 115q-13 13 0 26
t26 0l115 -115v47q0 7 5.5 12.5t13.5 5.5zM62 411l115 -115q13 -12 0 -25q-6 -6 -12 -6q-7 0 -13 6l-115 115v-48q0 -7 -5.5 -12.5t-13.5 -5.5t-13 5t-5 13v92q0 5 1 7q3 7 10 10q2 1 7 1h92q8 0 13 -5t5 -13t-5.5 -13.5t-12.5 -5.5h-48z" />
    <glyph glyph-name="uniE071" unicode="&#xe071;" horiz-adv-x="219" 
d="M0 306h73v-73h-73v73zM146 306h73v-73h-73v73zM146 87v73h73v-73h-73zM0 87v73h73v-73h-73z" />
    <glyph glyph-name="uniE072" unicode="&#xe072;" 
d="M0 320v128h128v-128h-128zM192 320v128h128v-128h-128zM384 320v128h128v-128h-128zM0 128v128h128v-128h-128zM192 128v128h128v-128h-128zM384 128v128h128v-128h-128zM0 -64v128h128v-128h-128zM192 -64v128h128v-128h-128zM384 -64v128h128v-128h-128z" />
    <glyph glyph-name="uniE073" unicode="&#xe073;" 
d="M405 309l-107 -73l1 148zM128 128v43h256v-43h-256zM128 43v42h256v-42h-256zM205 448h307v-512h-512v329zM192 379l-114 -102h114v102zM469 -21v426h-234v-170h-192v-256h426z" />
    <glyph glyph-name="uniE074" unicode="&#xe074;" 
d="M256 448q106 0 181 -75t75 -181t-75 -181t-181 -75t-181 75t-75 181t75 181t181 75zM256 -21q88 0 150.5 62.5t62.5 150.5t-62.5 150.5t-150.5 62.5t-150.5 -62.5t-62.5 -150.5t62.5 -150.5t150.5 -62.5zM224 53q0 13 9 22.5t23 9.5t23 -9.5t9 -22.5t-9 -22.5t-23 -9.5
t-23 9.5t-9 22.5zM277 128h-42v53l7 6q3 2 13 11t18.5 16.5t12.5 11.5q13 13 13 30q0 18 -12.5 30.5t-30.5 12.5t-30.5 -12.5t-12.5 -30.5v-21h-42v21q0 35 25 60t60 25t60 -25t25 -60t-25 -60q-17 -17 -39 -35v-33zM277 256z" />
    <glyph glyph-name="uniE075" unicode="&#xe075;" 
d="M311 448h201v-439h-183l-73 -73l-73 73h-183v439h201l55 -55zM43 51l158 1l34 -34v336l-52 51h-140v-354zM469 51v354h-140l-52 -51v-336l34 33h158z" />
    <glyph glyph-name="uniE076" unicode="&#xe076;" 
d="M448 448q26 0 45 -19t19 -45v-320q0 -26 -19 -45t-45 -19h-128q-18 0 -30 -12t-12 -30q0 -9 -6.5 -15.5t-15.5 -6.5t-15.5 6.5t-6.5 15.5q0 18 -12 30t-30 12h-128q-26 0 -45 19t-19 45v320q0 26 19 45t45 19h128q38 0 64 -29q26 29 64 29h128zM192 42q19 0 42 -9v331
q0 18 -12 30t-30 12h-128q-9 0 -15.5 -6.5t-6.5 -15.5v-320q0 -9 6.5 -15.5t15.5 -6.5h128zM448 42q8 0 15 7t7 15v318q0 9 -6.5 15.5t-15.5 6.5h-128q-18 0 -30 -12t-12 -30v-331q20 11 42 11h128z" />
    <glyph glyph-name="uniE077" unicode="&#xe077;" 
d="M373 160l75 21v-42h-75v21zM138 160v-21h-74v42zM341 160v-21q0 -18 -12 -30.5t-30 -12.5h-86q-18 0 -30 12.5t-12 30.5v21h170zM512 352v-43h-64v-64h-43v64h-64v43h64v64h43v-64h64zM512 59v0v-91h-107v21v1v42h-298v-64h-107v21v43v153l25 74l33 22l36 71h183v-43
h-157l-29 -57l-30 -20l-18 -54v-103h426v106h43v-122z" />
    <glyph glyph-name="uniE078" unicode="&#xe078;" 
d="M490 362q22 0 22 -20q0 -10 -6 -16t-14 -6h-64v-64q0 -22 -22 -22q-9 0 -15.5 6.5t-6.5 15.5v64h-64q-22 0 -22 20q0 9 6.5 15.5t15.5 6.5h64v64q0 22 20 22q9 0 15.5 -6.5t6.5 -15.5v-64h64zM406 192q8 0 14 -6t6 -16v-42q0 -32 -22 -57v-93q0 -18 -12 -30t-30 -12
t-30 12t-12 30v64h-192v-64q0 -18 -13 -29t-31 -11t-30 12t-12 30v75q-42 24 -42 73v13l22 150q4 32 27.5 52.5t56.5 20.5h128q22 0 22 -22t-22 -22h-128q-16 0 -27.5 -10.5t-14.5 -26.5l-20 -150v-5q0 -18 12 -30t30 -12h256q18 0 30 12t12 30v42q0 9 6.5 15.5t15.5 6.5z
" />
    <glyph glyph-name="uniE079" unicode="&#xe079;" 
d="M256 448q106 0 181 -75t75 -181t-75 -181t-181 -75t-181 75t-75 181t75 181t181 75zM256 406q-84 0 -144 -55.5t-68 -138.5h82q13 0 20 7l24 21q16 16 42 16h86q24 0 42 -15l24 -20q9 -7 20 -7h84q-8 82 -68.5 137t-143.5 55zM44 170q7 -76 61 -130t131 -62v73
q0 16 -11 24l-40 37q-1 1 -4 3.5t-4 3.5l-36 40q-8 11 -24 11h-73zM278 -20q76 7 130 61t62 131h-73q-16 0 -24 -11l-37 -40q-1 -1 -3.5 -4t-3.5 -4l-40 -36q-11 -8 -11 -24v-73z" />
    <glyph glyph-name="uniE07A" unicode="&#xe07a;" 
d="M0 373h512v-362h-512v362zM437 331h-362l181 -163zM43 53h426v249l-213 -191l-213 191v-249z" />
    <glyph glyph-name="uniE07B" unicode="&#xe07b;" 
d="M449 375q26 0 44.5 -19t18.5 -47v-236q0 -26 -18.5 -45t-44.5 -19h-386q-26 0 -44.5 19t-18.5 45v236q0 28 18.5 47t44.5 19h386zM436 332h-360l166 -144q6 -6 14 -6t14 6zM469 75v228l-172 -148q-16 -16 -41 -16t-41 16l-172 148v-228q0 -8 5.5 -14.5t14.5 -6.5h386
q8 0 14 6t6 15z" />
    <glyph glyph-name="uniE07C" unicode="&#xe07c;" 
d="M257 123q-29 0 -49 20.5t-20 48.5t20 48t49 20t48.5 -20t19.5 -48q0 -29 -20 -49t-48 -20zM257 217q-11 0 -18.5 -7.5t-7.5 -17.5t7.5 -18t18.5 -8q10 0 17.5 7.5t7.5 18.5q0 10 -7 17.5t-18 7.5zM356 62l-30 30l15 15q35 35 35 85q0 49 -35 84t-84.5 35t-84.5 -35
t-35 -84q0 -50 35 -85l15 -15l-30 -30l-15 15q-48 48 -48 115t48 115q47 47 114.5 47t114.5 -47q48 -48 48 -115t-48 -115zM422 -5l-30 31l15 15q62 62 62 151t-62 151t-151 62t-151 -62t-62 -151t62 -151l15 -15l-30 -31l-15 16q-75 75 -75 181t75 181t181 75t181 -75
t75 -181t-75 -181zM277 85l64 -149h-170l63 149h43z" />
    <glyph glyph-name="uniE07D" unicode="&#xe07d;" horiz-adv-x="513" 
d="M257 124q-29 0 -49 20t-20 48t20 48t49 20t48.5 -20t19.5 -48t-19.5 -48t-48.5 -20zM257 218q-11 0 -18.5 -7.5t-7.5 -18.5t7.5 -18.5t18.5 -7.5t18 7.5t7 18.5t-7 18.5t-18 7.5zM171 77q-7 -7 -17 -7q-8 0 -15 7q-48 48 -48 115t48 115t115.5 48t115.5 -48
q47 -50 47 -115q0 -68 -47 -115q-15 -15 -30 0t0 30q34 37 34 85q0 51 -34 85q-35 35 -84.5 35t-84.5 -35t-35 -85t35 -85q15 -15 0 -30zM438 11q-7 -7 -15 -7t-15 7q-15 15 0 30q62 64 62 152t-62 150t-151 62q-90 0 -152 -62t-62 -151t62 -151q15 -15 0 -30t-30 0
q-75 75 -75 181t75 181t182 75q106 0 181 -75t75 -181t-75 -181zM331 -34q6 -19 -10 -30h-120q-22 7 -15 30l47 119q3 22 26 22q9 0 16.5 -6.5t8.5 -15.5z" />
    <glyph glyph-name="uniE07E" unicode="&#xe07e;" 
d="M256 448q106 0 181 -75t75 -181t-75 -181t-181 -75t-181 75t-75 181t75 181t181 75zM256 -21q88 0 150.5 62.5t62.5 150.5t-62.5 150.5t-150.5 62.5t-150.5 -62.5t-62.5 -150.5t62.5 -150.5t150.5 -62.5zM213 305q0 13 9.5 22.5t22.5 9.5t22.5 -9.5t9.5 -22.5t-9.5 -22.5
t-22.5 -9.5t-22.5 9.5t-9.5 22.5zM277 102h43v-43h-43h-42h-43v43h43v85h-22v43h22h21h21v-128z" />
    <glyph glyph-name="uniE07F" unicode="&#xe07f;" 
d="M256 448q106 0 181 -75t75 -181t-75 -181t-181 -75t-181 75t-75 181t75 181t181 75zM256 -21q88 0 150.5 62.5t62.5 150.5t-62.5 150.5t-150.5 62.5t-150.5 -62.5t-62.5 -150.5t62.5 -150.5t150.5 -62.5zM299 85q9 0 15 -6t6 -15t-6 -15t-15 -6h-86q-9 0 -15 6t-6 15
t6 15t15 6t15.5 6.5t6.5 15.5v85q-9 0 -15.5 6t-6.5 15t6.5 15.5t15.5 6.5h21q9 0 15 -6.5t6 -15.5v-106q0 -9 6.5 -15.5t15.5 -6.5zM213 304q0 14 9.5 23t22.5 9t22.5 -9t9.5 -23t-9.5 -23t-22.5 -9t-22.5 9t-9.5 23z" />
    <glyph glyph-name="uniE080" unicode="&#xe080;" 
d="M256 448q106 0 181 -75t75 -181t-75 -181t-181 -75t-181 75t-75 181t75 181t181 75zM256 -22q88 0 151 63t63 151t-63 151t-151 63t-151 -63t-63 -151t63 -151t151 -63zM298 86q10 0 16 -7t4 -17q0 -9 -6.5 -15.5t-15.5 -6.5h-86q-9 0 -15.5 6.5t-6.5 15.5q0 22 22 22
q9 0 15.5 6.5t6.5 15.5v86q-9 0 -15.5 6.5t-6.5 15.5t6.5 15.5t15.5 6.5h22q9 0 15.5 -6.5t6.5 -15.5v-106q0 -9 6.5 -15.5t15.5 -6.5zM212 305q0 13 10 23t23 10t23 -10t10 -23t-10 -23t-23 -10t-23 10t-10 23z" />
    <glyph glyph-name="uniE081" unicode="&#xe081;" horiz-adv-x="427" 
d="M213 -64h-4l-3 1q-17 4 -33 9.5t-50.5 23.5t-59 39t-44 58.5t-19.5 81.5v252l213 47l214 -47v-252q0 -39 -14.5 -73t-38.5 -56t-47.5 -38.5t-51 -26.5t-38.5 -13.5t-19 -5.5h-5zM43 366v-217q0 -34 15.5 -63t35.5 -46t47.5 -32t42 -20t29.5 -9q13 3 29 8.5t43 20t47.5 32
t36 46.5t15.5 63v217l-171 38zM341 149h-256v79l13 38l18 11l19 38h157l19 -38l17 -11l14 -43zM117 182h192v39l-8 24l-15 11l-14 27h-118l-13 -27l-15 -10l-9 -25v-39zM258 220l39 11v-23h-39v12zM169 220v-12h-39v23zM244 221v-17q0 -13 -12 -13h-37q-13 0 -13 13v17h62z
M85 123v43h54v-43h-54zM288 123v43h54v-43h-54z" />
    <glyph glyph-name="uniE082" unicode="&#xe082;" horiz-adv-x="427" 
d="M288 143q19 0 36 17q16 16 13 36l-8 83q-1 17 -14.5 29t-30.5 12h-139q-18 0 -31 -12t-14 -31l-8 -83q0 -20 13 -36q15 -15 34 -15h149zM145 288h137q4 1 8 -2.5t4 -8.5l9 -85q0 -7 -4 -11t-11 -4h-149q-7 0 -11 4q-4 2 -4 11l8 85q0 11 13 11zM145 83h-8q-9 0 -13 7
q-7 7 -7 12v67q0 5 7 -1q8 -7 13 -8h8q4 0 9.5 2t7.5 1.5t2 -5.5v-56q0 -9 -6 -12q-4 -7 -13 -7zM213 -64h-4q-10 2 -26 7t-51 22t-62 38.5t-48.5 60.5t-21.5 85v235q0 18 17 21l192 43h9l192 -43q17 -3 17 -21v-235q0 -46 -21.5 -85t-48.5 -60.5t-62 -38.5t-51 -22t-26 -7
h-5zM43 367v-218q0 -115 170 -170q16 3 39.5 13t55.5 29t54 53t22 75v218l-171 38zM290 83h-8q-10 0 -13 7q-1 1 -4 5.5t-3 6.5v67q0 5 7 -1q8 -8 13 -8h8q4 0 9.5 2t7.5 1.5t2 -5.5v-56q0 -19 -19 -19z" />
    <glyph glyph-name="uniE083" unicode="&#xe083;" 
d="M373 128v21l75 22v-43h-75zM64 128v43l74 -22v-21h-74zM171 128v21h170v-21q0 -18 -12 -30.5t-30 -12.5h-86q-18 0 -30 12.5t-12 30.5zM384 256q-35 0 -60 25t-25 60t25 60.5t60 25.5t60 -25.5t25 -60.5q0 -24 -13 -45l55 -54l-30 -30l-56 55q-19 -11 -41 -11zM384 384
q-18 0 -30.5 -12.5t-12.5 -30.5t12.5 -30t30.5 -12t30.5 12t12.5 30t-12.5 30.5t-30.5 12.5zM512 43v-86h-107v64h-298v-64h-107v64v153l25 74l33 22l36 71h162v-42h-136l-29 -58l-30 -20l-18 -54v-103h426v107h43v-128z" />
    <glyph glyph-name="uniE084" unicode="&#xe084;" 
d="M427 171v-43q0 -31 -22 -56v-93q0 -18 -12 -30.5t-30 -12.5t-30.5 12.5t-12.5 30.5v64h-213v-64q0 -18 -12.5 -30.5t-30.5 -12.5t-30.5 12.5t-12.5 30.5v93q-21 24 -21 56q0 8 1 12l21 150q5 31 29 52t56 21h85q9 0 15 -6.5t6 -15.5t-6 -15t-15 -6h-85q-16 0 -28.5 -10.5
t-14.5 -26.5l-21 -149v-6q0 -18 12 -30.5t30 -12.5h256q18 0 30.5 12.5t12.5 30.5v43q0 9 6 15t15 6t15.5 -6t6.5 -15zM506 228q6 -6 6 -15t-6 -15t-15 -6t-15 6l-55 54q-26 -17 -58 -17q-44 0 -75.5 31t-31.5 75t31.5 75.5t75.5 31.5t75 -31.5t31 -75.5q0 -32 -17 -58z
M363 277q26 0 45 19t19 45t-19 45t-45 19t-45 -19t-19 -45t19 -45t45 -19z" />
    <glyph glyph-name="uniE085" unicode="&#xe085;" 
d="M468 54v106h43v-149v-64h-107v64h-297v-64h-107v91v126l25 73l33 23l36 70h183v-42h-157l-29 -57l-30 -21l-18 -53v-103h425zM372 117v22l75 21v-43h-75zM64 117v43l74 -21v-22h-74zM170 118h1v21h170v-22q0 -18 -12.5 -30t-30.5 -12h-85q-18 0 -30.5 12.5t-12.5 30.5z
M512 350q0 -25 -13.5 -50t-42.5 -57.5t-30 -34.5l-30 34q-29 34 -42 58.5t-13 49.5q0 36 25 61.5t60 25.5t60.5 -25.5t25.5 -61.5zM376 350q0 -21 14.5 -36t35.5 -15t35.5 15t14.5 36t-14.5 35.5t-35.5 14.5t-35.5 -14.5t-14.5 -35.5z" />
    <glyph glyph-name="uniE086" unicode="&#xe086;" horiz-adv-x="294" 
d="M243 164q13 0 13 -13v-13q0 -18 -13 -33v-56q0 -11 -7.5 -18.5t-17.5 -7.5t-18 7.5t-8 18.5v38h-115v-38q0 -11 -7.5 -18.5t-18.5 -7.5q-10 0 -17.5 7.5t-7.5 18.5v46q-26 14 -26 43v8l13 90q3 18 17.5 30.5t33.5 12.5h79q13 0 13 -13t-13 -13h-79q-24 0 -26 -21l-12 -90
v-4q0 -10 7 -17.5t18 -7.5h154q11 0 18 7.5t7 17.5v13q0 13 13 13zM241 349q22 0 37.5 -16.5t15.5 -39.5q0 -19 -9 -32l-32 -59q-5 -9 -13 -9t-12 9l-32 59q-9 16 -9 32q0 23 16 39.5t38 16.5zM241 262q13 0 23 10t10 24t-10 23.5t-23 9.5q-14 0 -24 -10t-10 -23
q0 -14 10.5 -24t23.5 -10z" />
    <glyph glyph-name="uniE087" unicode="&#xe087;" horiz-adv-x="483" 
d="M348 -21q19 -2 19 -22q0 -19 -19 -21h-211q-20 2 -20 21q0 8 6 14.5t14 7.5h211zM479 398q4 -4 4 -13v-5q-7 -48 -43 -96t-80 -67q-14 -59 -52 -115l24 -51q3 -9 3 -10q0 -2 -3 -11q-6 -10 -18 -10h-146q-12 0 -18 10q-2 6 -2 11q0 4 2 10l24 51q-38 52 -52 115
q-44 19 -79.5 67t-42.5 96v2q0 9 6 15q5 7 15 7h70q-1 11 -1 20v1q-1 1 -1 2q0 9 6 15q4 6 16 6h263q8 0 15 -7q5 -5 5 -14v-2q0 -9 -1 -20h70q11 0 16 -7zM47 362q7 -22 25 -48t37 -40q-10 53 -14 88h-48zM264 97h1q-2 4 -2 9q0 8 7 15q34 32 54 116.5t27 167.5h-217
q23 -230 80 -284q7 -7 7 -15q0 -5 -2 -9l-16 -33h77zM374 274q19 13 37 39t25 49h-48q-6 -53 -14 -88z" />
    <glyph glyph-name="uniE088" unicode="&#xe088;" horiz-adv-x="265" 
d="M0 197l225 225l40 -40l-186 -185l186 -186l-40 -40l-225 225v1z" />
    <glyph glyph-name="uniE089" unicode="&#xe089;" 
d="M272 111h-94l-178 178v93l66 66h94l116 -116l-31 -30l-103 103h-58l-41 -41v-57l153 -154h58l37 37l30 -30zM446 -64h-94l-115 115l30 30l103 -103h58l41 41v58q-29 29 -35 37l-1 -1l-117 117h-58l-37 -36l-30 30l49 49h94l129 -129l43 -43l6 -6v-94z" />
    <glyph glyph-name="uniE08A" unicode="&#xe08a;" 
d="M510 435q2 -4 2 -8v-150q0 -9 -6 -15t-15 -6t-15.5 6t-6.5 15v98l-198 -198q-6 -6 -15 -6t-15 6q-15 15 0 30l198 198h-98q-9 0 -15 6.5t-6 15.5q0 8 6.5 14.5t14.5 6.5h150q6 0 8 -2q7 -4 11 -11zM405 213q8 0 15 -6.5t7 -14.5v-171q0 -35 -25.5 -60t-60.5 -25h-256
q-35 0 -60 25t-25 60v256q0 35 25 60.5t60 25.5h171q8 0 14.5 -7t6.5 -15q0 -9 -6 -15t-15 -6h-171q-17 0 -29.5 -13t-12.5 -30v-256q0 -17 12.5 -29.5t29.5 -12.5h256q17 0 30 12.5t13 29.5v171q0 8 6.5 14.5t14.5 6.5z" />
    <glyph glyph-name="uniE08B" unicode="&#xe08b;" 
d="M384 -22v214h42v-256h-426v426h256v-42h-214v-342h342zM320 448h192v-22v-20v-150h-42v118l-224 -224l-32 32l224 224h-118v42z" />
    <glyph glyph-name="uniE08C" unicode="&#xe08c;" horiz-adv-x="384" 
d="M128 256q0 26 19 45t45 19t45 -19t19 -45t-19 -45t-45 -19t-45 19t-19 45zM213 -64h-42v70l-115 114q-56 56 -56 136t56 136t136 56t136 -56t56 -136t-56 -136l-115 -114v-70zM192 405q-63 0 -106 -43q-44 -44 -44 -106t44 -106l106 -105l106 105q44 44 44 106t-44 106
q-43 43 -106 43z" />
    <glyph glyph-name="uniE08D" unicode="&#xe08d;" 
d="M256 -64q-13 0 -13 13v486q0 13 13 13t13 -13v-486q1 -5 -3 -9t-10 -4zM512 192q0 -13 -13 -13h-486q-4 0 -8.5 4t-4.5 9q0 13 13 13h486q13 0 13 -13zM256 13q-74 0 -126.5 52.5t-52.5 126.5t52.5 126.5t126.5 52.5t126.5 -52.5t52.5 -126.5t-52.5 -126.5t-126.5 -52.5z
M256 349q-64 0 -110.5 -46.5t-46.5 -110.5t46.5 -110.5t110.5 -46.5t110.5 46.5t46.5 110.5t-46.5 110.5t-110.5 46.5z" />
    <glyph glyph-name="uniE08E" unicode="&#xe08e;" horiz-adv-x="363" 
d="M203 448q66 0 113 -47t47 -113v-89v-71v-192h-363v263h320v89q0 49 -34 83t-83 34t-83 -34t-34 -83v-21h-43v21q0 66 47 113t113 47zM320 -21v149v28h-277v-177h277z" />
    <glyph glyph-name="uniE08F" unicode="&#xe08f;" horiz-adv-x="509" 
d="M152 135q16 0 22 4t6 19q0 16 -4.5 20t-23.5 4h-23v25h23q15 0 20.5 4t5.5 17t-5.5 17t-20.5 4q-28 0 -28 -16h-27q0 41 55 41q28 0 40.5 -9.5t12.5 -35.5q0 -27 -14 -33q16 -6 16 -35t-13.5 -40t-41.5 -11q-55 0 -55 40h27q0 -15 28 -15zM288 249q-18 0 -23 -7t-6 -25
v-8q13 9 27 9h2q28 0 40.5 -12t12.5 -42q0 -1 0.5 -3.5t0.5 -3.5q0 -19 -14 -33t-34 -14h-7h-5q-13 0 -26.5 8.5t-18.5 20.5q-6 22 -6 39v7v7q0 27 3 46q7 36 54 36q50 0 50 -41h-27q0 16 -23 16zM289 193q-17 0 -23.5 -5.5t-6.5 -22.5t6.5 -23.5t21.5 -6.5q16 0 21.5 5
t5.5 23t-5 24t-20 6zM421 274q17 0 28 -5t16.5 -10.5t8.5 -19.5t3 -21v-26v-26t-3 -21t-8.5 -19.5t-16.5 -10.5t-28 -5t-28 5.5t-16.5 10.5t-8 20t-2.5 20.5v25.5v25.5t2.5 20.5t8 20t16.5 10.5t28 5.5zM446 149q3 13 3 32v11v11q0 19 -3 32q-5 13 -26 13q-22 0 -25 -13
t-3 -32q0 -1 0.5 -5t0.5 -6t-0.5 -6t-0.5 -5q0 -19 3 -32q5 -14 25 -14q21 0 26 14zM466 299q0 9 6 15t15 6t15.5 -6t6.5 -15t-6.5 -15.5t-15.5 -6.5t-15 6.5t-6 15.5zM406 41q5 7 16 7q10 0 15 -7q6 -6 6 -15t-6 -15q-31 -31 -84 -53t-97 -22q-45 0 -98 22t-84 53
t-52.5 83.5t-21.5 96.5q0 106 75 181t181 75q33 0 76 -13t70 -32v25q0 9 6 15t15 6t15.5 -6t6.5 -15v-75q0 -9 -6.5 -15t-15.5 -6h-74q-9 0 -15.5 6t-6.5 15t6.5 15t15.5 6h19q-21 13 -54.5 22.5t-58.5 9.5q-37 0 -80.5 -18t-69.5 -44q-24 -26 -41 -68.5t-17 -77.5
q0 -89 62.5 -151.5t150.5 -62.5q35 0 77.5 17t68.5 41z" />
    <glyph glyph-name="uniE090" unicode="&#xe090;" 
d="M419 448q38 0 65.5 -28.5t27.5 -68.5q0 -30 -16 -54l-55 -100q-7 -14 -22 -14t-22 14l-55 100q-15 23 -15 54q0 40 27 68.5t65 28.5zM419 307q20 0 34.5 14t14.5 34t-14.5 34.5t-34.5 14.5t-34 -14.5t-14 -34.5t14 -34t34 -14zM419 161q9 0 15.5 -7t6.5 -16v-3
q0 -34 -22 -58v-96q0 -18 -13 -31.5t-31 -13.5t-31 13.5t-13 31.5v66h-199v-66q0 -18 -13 -31.5t-31 -13.5t-31 13.5t-13 31.5v78q-44 25 -44 76q0 8 1 12l22 155q5 32 29.5 53.5t57.5 21.5h141q9 0 15.5 -6.5t6.5 -15.5t-6.5 -15.5t-15.5 -6.5h-141q-16 0 -28.5 -11
t-14.5 -27l-22 -154q0 -1 -0.5 -3t-0.5 -3q0 -18 13 -31t31 -13h265q18 0 31 13t13 31v3q0 9 6.5 16t15.5 7z" />
    <glyph glyph-name="uniE091" unicode="&#xe091;" horiz-adv-x="384" 
d="M128 256q0 26 19 45t45 19t45 -19t19 -45t-19 -45t-45 -19t-45 19t-19 45zM213 -64h-42v70l-115 114q-56 56 -56 136t56 136t136 56t136 -56t56 -136t-56 -136l-115 -114v-70zM192 405q-63 0 -106 -43q-44 -44 -44 -106t44 -106l106 -105l106 105q44 44 44 106t-44 106
q-43 43 -106 43z" />
    <glyph glyph-name="uniE092" unicode="&#xe092;" horiz-adv-x="384" 
d="M128 256q0 26 19 45t45 19t45 -19t19 -45t-19 -45t-45 -19t-45 19t-19 45zM192 448q80 0 136 -56t56 -136q0 -98 -77 -154l-51 -38q-42 -32 -42 -86v-22q0 -9 -6.5 -15.5t-15.5 -6.5t-15.5 6.5t-6.5 15.5v22q0 54 -42 86l-51 38q-77 59 -77 154q0 80 56 136t136 56z
M269 128q34 20 53.5 53.5t19.5 74.5q0 62 -44 106t-106 44t-106 -44t-44 -106q0 -41 19.5 -74.5t53.5 -53.5l66 -40q8 -4 11 -4t11 4z" />
    <glyph glyph-name="uniE093" unicode="&#xe093;" 
d="M266 373l-31 -19l-59 23l32 19zM140 296l-31 -19l-59 22l31 20zM203 335l-31 -20l-59 23l32 20zM330 412l-32 -19l-59 23l32 19zM366 314l10 -27v-51l-4 -2l-19 51l-293 -111l74 -196l165 62l8 -21l-186 -70l-121 322l21 8l56 -22l-39 -24l1 -1l34 13l-14 -47l35 13
l14 47l35 14l-14 -48l35 13l15 48l35 13l-15 -47l35 13l15 48l35 13l-15 -48l35 13l15 48l34 13zM512 224q0 -2 -2 -2h-1q-3 0 -3 2v3q0 2 -2 8q-2 13 -7 23q-1 4 -6 11q-1 1 -3.5 4t-3.5 4l-4 3l-4 1l-1 1h-2h-1h-1h-3q-8 0 -13 3h-1l-1 1h-1l-6 5l-2 2l-1 1q-5 6 -9 17
q-3 6 -5 14l1 -238q2 -8 2 -15q0 -2 -0.5 -6t-0.5 -6q-2 -17 -16 -29.5t-31 -13.5h-7q-44 0 -45 26q0 1 -0.5 3.5t-0.5 3.5q0 16 11 28t26 14q2 0 15 0.5t22 0.5l-2 290l26 1v-5v-1l1 -3q0 -5 1 -8q2 -11 8 -24q2 -7 5 -11l7 -7l4 -3l4 -1q2 -1 7 -1h1h3h1q1 -1 2 -1t4 -1h1
l2 -1l1 -1q1 0 1 -0.5t1 -0.5l6 -5l2 -2l1 -1q5 -6 9 -17q6 -16 7 -20q4 -18 4 -33v-9v-4z" />
    <glyph glyph-name="uniE094" unicode="&#xe094;" 
d="M0 107v170h512v-170h-512z" />
    <glyph glyph-name="uniE095" unicode="&#xe095;" horiz-adv-x="439" 
d="M421 247q7 0 12.5 -5.5t5.5 -12.5q0 -8 -5.5 -13.5t-12.5 -5.5h-403q-7 0 -12.5 5.5t-5.5 13.5q0 7 5 12.5t13 5.5h403z" />
    <glyph glyph-name="uniE096" unicode="&#xe096;" 
d="M277 418h43l21 -113h-59zM235 418l-5 -113h-59l21 113h43zM286 209h79l40 -243h-113zM226 209l-6 -243h-113l40 243h79zM92 177h-37v49q-2 12 -12 15h-43v36h512v-36h-45q-11 -2 -13 -13v-49h-34l-10 47q-4 11 -15 15h-282q-9 0 -11 -13z" />
    <glyph glyph-name="uniE097" unicode="&#xe097;" 
d="M256 434l59 -188h197l-157 -116l55 -180l-154 109l-157 -109l58 180l-157 116h194z" />
    <glyph glyph-name="uniE098" unicode="&#xe098;" horiz-adv-x="513" 
d="M494 214l-113 -82l42 -130q9 -28 -15 -42q-9 -9 -22 -9t-22 9l-106 78l-111 -80q-23 -14 -46 0q-24 14 -15 42l42 130l-111 80q-21 13 -15 33q5 17 37 17h137l44 142q17 31 40 31q26 0 36 -33l43 -137h137q30 0 36 -16q3 -23 -18 -33z" />
    <glyph glyph-name="uniE099" unicode="&#xe099;" horiz-adv-x="421" 
d="M421 -18h-421l201 420z" />
    <glyph glyph-name="uniE09A" unicode="&#xe09a;" 
d="M512 -64h-512v512h512v-512zM43 -21h426v426h-426v-426zM107 277v43h42v-43h-42zM213 277v43h192v-43h-192zM107 171v42h42v-42h-42zM213 171v42h192v-42h-192zM107 64v43h42v-43h-42zM213 64v43h192v-43h-192z" />
    <glyph glyph-name="uniE09B" unicode="&#xe09b;" 
d="M427 448q35 0 60 -25t25 -60v-342q0 -35 -25 -60t-60 -25h-342q-35 0 -60 25t-25 60v342q0 35 25 60t60 25h342zM469 21v342q0 18 -12 30t-30 12h-342q-18 0 -30 -12t-12 -30v-342q0 -18 12 -30t30 -12h342q18 0 30 12t12 30zM402 316q9 0 15 -6t6 -15t-6 -15.5t-15 -6.5
h-213q-9 0 -15.5 6.5t-6.5 15.5t6.5 15t15.5 6h213zM116 321q11 0 18.5 -7.5t7.5 -19.5q0 -10 -8 -18t-18 -8q-11 0 -19 8t-8 18t8.5 18.5t18.5 8.5zM402 213q9 0 15 -6t6 -15t-6 -15t-15 -6h-213q-9 0 -15.5 6t-6.5 15t6.5 15t15.5 6h213zM116 219q11 0 18.5 -8t7.5 -20
q0 -11 -8 -18.5t-18 -7.5q-11 0 -19 8t-8 18q0 11 8.5 19.5t18.5 8.5zM402 111q9 0 15 -6.5t6 -15.5t-6 -15t-15 -6h-213q-9 0 -15.5 6t-6.5 15t6.5 15.5t15.5 6.5h213zM116 116q11 0 18.5 -7.5t7.5 -19.5q0 -11 -8 -18.5t-18 -7.5q-11 0 -19 8t-8 18q0 11 8.5 19t18.5 8z
" />
    <glyph glyph-name="uniE09C" unicode="&#xe09c;" horiz-adv-x="461" 
d="M461 64v-51h-154q0 -32 -22.5 -54.5t-53.5 -22.5t-54 23t-23 54h-154v51h51v179q0 61 37 109t95 64q13 32 47 32q35 0 48 -32q58 -16 95 -64t37 -109v-179h51zM359 64v179q0 53 -37.5 90.5t-90.5 37.5t-91 -37.5t-38 -90.5v-179h257z" />
    <glyph glyph-name="uniE09D" unicode="&#xe09d;" 
d="M85 160q0 14 9.5 23t22.5 9t22.5 -9t9.5 -23t-9.5 -23t-22.5 -9t-22.5 9t-9.5 23zM341 448q71 0 121 -50t50 -121q0 -70 -50 -120t-121 -50v-30l-140 -141h-50l-151 151v156l34 34h137q0 71 50 121t120 50zM198 305q-8 -12 -8 -28q0 -20 11 -25q11 -11 40 -11h45v17h-43
q-21 0 -25 4q-5 5 -5 15q0 13 5 15q5 5 25 5h41v19h-45q-30 0 -41 -11zM299 94v19q-45 11 -78 44t-44 78h-126l-8 -9v-121l126 -126h14zM397 239v77h-22v-28h-57v28h-21v-77h21v30h57v-30h22zM471 286h-40v13h64v17h-88v-75h22v28h42v17z" />
    <glyph glyph-name="uniE09E" unicode="&#xe09e;" horiz-adv-x="510" 
d="M85 160q0 14 9.5 23t22.5 9t22.5 -9t9.5 -23t-9.5 -23t-22.5 -9t-22.5 9t-9.5 23zM510 277q0 -70 -50 -120t-119 -50v-5q0 -28 -19 -44l-100 -101q-18 -21 -45 -21q-29 0 -45 19l-113 113q-19 16 -19 45v105q0 25 18 42t44 17h104h5q0 71 50 121t120 50t119.5 -50
t49.5 -121zM245 337q-22 0 -33 -9t-12.5 -18.5t-1.5 -30.5t1.5 -30.5t12.5 -18t33 -8.5q43 0 43 32h-19q0 -15 -24 -15q-16 0 -20.5 8.5t-4.5 34.5q0 23 5 30.5t20 7.5q24 0 24 -15h19q0 32 -43 32zM292 113q20 -6 45 -6q-25 3 -45 6q-41 14 -71.5 44.5t-43.5 70.5
q-3 7 -13 7h-102q-8 0 -13.5 -6t-5.5 -14v-104q0 -9 6 -15l113 -113q15 -15 30 0l100 100q15 15 0 30zM390 222v111h-19v-47h-45v47h-19v-113h19v49h45v-47h19zM429 222v49h53v17h-53v28h55v17h-74v-111h19z" />
    <glyph glyph-name="uniE09F" unicode="&#xe09f;" 
d="M85 160q0 14 9.5 23t22.5 9t22.5 -9t9.5 -23t-9.5 -23t-22.5 -9t-22.5 9t-9.5 23zM341 448q71 0 121 -50t50 -121q0 -70 -50 -120t-121 -50v-30l-140 -141h-50l-151 151v156l34 34h137q0 71 50 121t120 50zM269 378v-32h149v32h-149zM299 94v19q-45 11 -78 44t-44 78
h-126l-8 -9v-121l126 -126h14zM457 205h-5v45h-34v-11h-6q-11 0 -14 3t-3 12v40h38v32h-186v-34h18l-3 -40q0 -12 -5 -14.5t-22 -2.5h-11v-30h32q27 0 39 10.5t14 34.5l5 44h38v-44q0 -25 11 -35t36 -10h58z" />
    <glyph glyph-name="uniE0A0" unicode="&#xe0a0;" 
d="M85 160q0 14 9.5 23t22.5 9t22.5 -9t9.5 -23t-9.5 -23t-22.5 -9t-22.5 9t-9.5 23zM341 448q71 0 121 -50t50 -121q0 -70 -50 -120t-121 -50v-5q0 -28 -19 -44l-100 -101q-18 -21 -45 -21q-29 0 -45 19l-113 113q-19 16 -19 45v105q0 25 18 42t44 17h104h5q0 71 50 121
t120 50zM256 373v-27h122v27h-122zM292 83q15 15 0 30l-2 2q-40 13 -70 43t-43 70q-3 7 -13 7h-102q-8 0 -13.5 -6t-5.5 -14v-104q0 -9 6 -15l113 -113q15 -15 30 0zM452 233v23v13h-30v-13v-17q0 -9 -2 -11q-6 -6 -17 -6q-10 0 -13.5 3.5t-5.5 13.5l-17 72h19v28h-139v-28
h20l-13 -117h32l13 117h38l19 -81v-2q1 -15 15 -25.5t30 -8.5h6q42 0 45 39z" />
    <glyph glyph-name="uniE0A1" unicode="&#xe0a1;" 
d="M85 160q0 14 9.5 23t22.5 9t22.5 -9t9.5 -23t-9.5 -23t-22.5 -9t-22.5 9t-9.5 23zM341 448q71 0 121 -50t50 -121q0 -70 -50 -120t-121 -50v-30l-140 -141h-50l-151 151v156l34 34h137q0 71 50 121t120 50zM420 329h-27l29 -30h24l28 30h-26l-13 -13h-2zM299 94v19
q-45 11 -78 44t-44 78h-126l-8 -9v-121l126 -126h14zM335 218h40l-78 66l74 47h-40l-81 -52v52h-28v-113h28v36l23 15zM401 241q-4 4 -4 11q0 5 4 13q6 4 19 4h60v19h-62q-19 3 -36 -11q-11 -11 -11 -23q-3 -14 9 -26q16 -13 36 -10h64v19h-60q-13 0 -19 4z" />
    <glyph glyph-name="uniE0A2" unicode="&#xe0a2;" 
d="M85 160q0 14 9.5 23t22.5 9t22.5 -9t9.5 -23t-9.5 -23t-22.5 -9t-22.5 9t-9.5 23zM341 448q71 0 121 -50t50 -121q0 -70 -50 -120t-121 -50v-5q0 -28 -19 -44l-100 -101q-18 -21 -45 -21q-29 0 -45 19l-113 113q-19 16 -19 45v105q0 25 18 42t44 17h104h5q0 71 50 121
t120 50zM399 346h-26l28 -28h26l27 28h-25l-15 -15zM292 83q15 15 0 30l-2 2q-40 13 -70 43t-43 70q-3 7 -13 7h-102q-8 0 -13.5 -6t-5.5 -14v-104q0 -9 6 -15l113 -113q15 -15 30 0zM322 198h39l-79 75l79 73h-37l-62 -60v60h-25v-148h25v60zM414 218q-17 0 -21.5 7
t-4.5 27t4.5 27t21.5 7q21 0 21 -13h24q0 34 -47 34q-31 0 -40 -14t-9 -41t9 -41.5t40 -14.5q47 0 47 34h-24q0 -12 -21 -12z" />
    <glyph glyph-name="uniE0A3" unicode="&#xe0a3;" 
d="M85 160q0 14 9.5 23t22.5 9t22.5 -9t9.5 -23t-9.5 -23t-22.5 -9t-22.5 9t-9.5 23zM341 448q71 0 121 -50t50 -121q0 -70 -50 -120t-121 -50v-30l-140 -141h-50l-151 151v156l34 34h9h128q0 71 50 121t120 50zM299 94v19q-45 11 -78 44t-44 78h-126l-8 -9v-121l126 -126
h14zM427 222q10 15 10 30q0 17 -10 27q-18 15 -47 15l-19 3v19h64v32h-64v36h-35v-34h-15q-27 3 -46 -13q-13 -13 -13 -30q0 -19 13 -28q17 -14 44 -14l17 -3v-21h-66v-32h66v-38h35v36h14q28 -3 52 15zM294 314q2 2 9 2h23v-17h-21q-13 0 -13 8q0 5 2 7zM384 258
q13 -3 13 -8q0 -9 -13 -9h-23v19z" />
    <glyph glyph-name="uniE0A4" unicode="&#xe0a4;" 
d="M85 160q0 14 9.5 23t22.5 9t22.5 -9t9.5 -23t-9.5 -23t-22.5 -9t-22.5 9t-9.5 23zM341 448q71 0 121 -50t50 -121q0 -70 -50 -120t-121 -50v-5q0 -28 -19 -44l-100 -101q-18 -21 -45 -21q-29 0 -45 19l-113 113q-19 16 -19 45v105q0 25 18 42t44 17h104h5q0 71 50 121
t120 50zM292 83q15 15 0 30l-2 2q-40 13 -70 43t-43 70q-3 7 -13 7h-102q-8 0 -13.5 -6t-5.5 -14v-104q0 -9 6 -15l113 -113q15 -15 30 0zM363 188q20 3 30.5 18.5t7.5 36.5q0 18 -3 28.5t-13 15.5t-18 6.5t-28 3.5q-30 0 -30 21q0 14 6.5 19.5t23.5 5.5t23.5 -3.5
t6.5 -13.5h30q0 40 -47 43v26h-28v-28q-47 -3 -47 -49q0 -31 14 -40t46 -13q16 -1 21.5 -2.5t10 -7t4.5 -18.5t-6.5 -19.5t-25.5 -6.5q-32 0 -32 17h-32q0 -38 47 -42v-26h28v28h11z" />
    <glyph glyph-name="uniE0A5" unicode="&#xe0a5;" 
d="M171 277h-7h-104q-24 0 -42 -17t-18 -42v-105q0 -29 19 -45l113 -113q16 -19 45 -19q30 0 45 21l100 101q19 16 19 44zM292 85l-100 -100q-15 -15 -30 0l-113 113q-6 6 -6 15v105q0 17 17 17h104q8 0 13 -5q13 -42 43.5 -73t71.5 -42q15 -15 0 -30zM85 160q0 14 9.5 23
t22.5 9t22.5 -9t9.5 -23t-9.5 -23t-22.5 -9t-22.5 9t-9.5 23zM341 448q71 0 121 -50t50 -121q0 -70 -50 -120t-121 -50t-120.5 49.5t-49.5 120.5t50 121t120 50zM363 316h-56q0 19 7 27.5t29 8.5q32 0 32 -21h37q0 53 -69 53q-39 0 -54.5 -16.5t-17.5 -51.5h-21v-30h21v-17
h-21v-28h21q2 -35 17.5 -52.5t54.5 -17.5q69 0 69 53h-37q0 -13 -7 -17t-25 -4q-22 0 -29 9t-7 29h56v28h-56v17h56v30z" />
    <glyph glyph-name="uniE0A6" unicode="&#xe0a6;" 
d="M85 160q0 14 9.5 23t22.5 9t22.5 -9t9.5 -23t-9.5 -23t-22.5 -9t-22.5 9t-9.5 23zM341 448q71 0 121 -50t50 -121q0 -70 -50 -120t-121 -50v-30l-140 -141h-50l-151 151v156l34 34h137q0 71 50 121t120 50zM299 94v19q-45 11 -78 44t-44 78h-126l-8 -9v-121l126 -126h14z
M435 277v39h-51q-3 7 -11 10h49l7 39h-173l6 -39h35q12 2 27 -8l2 -2h-68v-39h71q0 -1 -3 -4q-8 -8 -34 -8h-34v-37q24 -3 39 -21l36 -34h62l-37 34q-16 16 -32 21q28 4 41 17q14 11 17 32h51z" />
    <glyph glyph-name="uniE0A7" unicode="&#xe0a7;" 
d="M85 160q0 14 9.5 23t22.5 9t22.5 -9t9.5 -23t-9.5 -23t-22.5 -9t-22.5 9t-9.5 23zM341 448q71 0 121 -50t50 -121q0 -70 -50 -120t-121 -50v-5q0 -28 -19 -44l-100 -101q-18 -21 -45 -21q-29 0 -45 19l-113 113q-19 16 -19 45v105q0 25 18 42t44 17h104h5q0 71 50 121
t120 50zM292 113q-41 13 -71.5 43.5t-43.5 71.5q-3 7 -13 7h-102q-8 0 -13.5 -6t-5.5 -14v-104q0 -9 6 -15l113 -113q15 -15 30 0l100 100q15 15 0 30zM407 346h5v34h-130v-32h23q36 0 41 -13h-64v-34h64q-2 -7 -8 -10.5t-12 -4t-19 -0.5h-34l77 -117h43l-60 87q17 2 30 15
t15 30h29v32h-29q0 7 -3 13h32z" />
    <glyph glyph-name="uniE0A8" unicode="&#xe0a8;" 
d="M85 160q0 14 9.5 23t22.5 9t22.5 -9t9.5 -23t-9.5 -23t-22.5 -9t-22.5 9t-9.5 23zM341 448q71 0 121 -50t50 -121q0 -70 -50 -120t-121 -50v-30l-140 -141h-50l-151 151v156l34 34h137q0 71 50 121t120 50zM299 94v19q-45 11 -78 44t-44 78h-126l-8 -9v-121l126 -126h14z
M414 277h-28l75 77h-51l-69 -72l-66 72h-51l73 -77h-35l5 -25h53v-17h-47v-26h47v-21h43v21h44v26h-44v17h47z" />
    <glyph glyph-name="uniE0A9" unicode="&#xe0a9;" 
d="M85 160q0 14 9.5 23t22.5 9t22.5 -9t9.5 -23t-9.5 -23t-22.5 -9t-22.5 9t-9.5 23zM341 448q71 0 121 -50t50 -121q0 -70 -50 -120t-121 -50v-5q0 -28 -19 -44l-100 -101q-18 -21 -45 -21q-29 0 -45 19l-113 113q-19 16 -19 45v105q0 25 18 42t44 17h104h5q0 71 50 121
t120 50zM292 83q15 15 0 30l-2 2q-40 13 -70 43t-43 70q-3 7 -13 7h-102q-8 0 -13.5 -6t-5.5 -14v-104q0 -9 6 -15l113 -113q15 -15 30 0zM410 305v2h-22l45 71h-40l-52 -84l-51 81h-40l44 -70h-21v-28h41l12 -17h-51v-30h51v-59h35v62h49v27h-49l10 17h39v28z" />
    <glyph glyph-name="uniE0AA" unicode="&#xe0aa;" 
d="M275 273l-4 9h36l-4 -9h-28zM337 282h11l4 -9h-19zM290 237l-6 15h10zM87 160q0 14 9.5 23t22.5 9t22.5 -9t9.5 -23t-9.5 -23t-22.5 -9t-22.5 9t-9.5 23zM343 448q70 0 119.5 -50t49.5 -121q0 -70 -50 -120t-121 -50v-30l-140 -141h-50l-151 151v156l34 34h139
q0 71 50 121t120 50zM301 94h-2v19q-45 11 -78 44t-44 78h-126l-6 -9v-121l124 -126h14zM478 273l-36 -2l4 8h32l4 22h-25l17 40h-32l-17 -40h-54l-17 40h-23l-17 -40h-54l-17 40h-32l17 -38h-25l4 -21h30l4 -9h-32v-21h43l23 -54h28l21 54h37l21 -54h30l23 54h43v21z
M397 237l-7 15h13zM382 273l-2 9h36l-4 -9h-30z" />
    <glyph glyph-name="uniE0AB" unicode="&#xe0ab;" 
d="M337 305h13l6 -17h-23zM85 160q0 14 9.5 23t22.5 9t22.5 -9t9.5 -23t-9.5 -23t-22.5 -9t-22.5 9t-9.5 23zM297 233l-7 27h13zM284 288l-5 17h35l-5 -17h-25zM380 288l-5 17h35l-5 -17h-25zM341 448q71 0 121 -50t50 -121q0 -70 -50 -120t-121 -50v-5q0 -28 -19 -44
l-102 -101q-18 -21 -45 -21q-26 0 -45 19l-113 113q-17 17 -17 45v105q0 24 18 41.5t42 17.5h106h5q0 71 50 121t120 50zM292 83q11 17 -2 30l-2 2q-40 13 -69 42t-42 69q-3 9 -15 9h-102q-7 0 -12 -6t-5 -14v-104q0 -9 6 -15l113 -113q15 -15 30 0zM429 260v2h34v26h-28
l4 17h24v26h-17l6 32h-30l-6 -32h-47l-8 32h-32l-9 -32h-45l-6 32h-30l6 -32h-25v-26h32l4 -17h-38v-28h42l17 -70h32l17 70h37l17 -70h32zM395 233l-7 27h13z" />
    <glyph glyph-name="uniE0AC" unicode="&#xe0ac;" 
d="M85 160q0 14 9.5 23t22.5 9t22.5 -9t9.5 -23t-9.5 -23t-22.5 -9t-22.5 9t-9.5 23zM341 448q71 0 121 -50t50 -121q0 -70 -50 -120t-121 -50v-30l-140 -141h-50l-151 151v156l34 34h137q0 71 50 121t120 50zM299 94v19q-45 11 -78 44t-44 78h-126l-8 -9v-121l126 -126h14z
M341 215h41l-81 69l77 49h-43l-83 -54v54h-30v-118h30v39l25 15zM439 269v2h32v19h-38q-23 0 -36 -11q-11 -16 -9 -27v-37h28v35q0 7 4 15q4 4 19 4z" />
    <glyph glyph-name="uniE0AD" unicode="&#xe0ad;" 
d="M85 160q0 14 9.5 23t22.5 9t22.5 -9t9.5 -23t-9.5 -23t-22.5 -9t-22.5 9t-9.5 23zM341 448q71 0 121 -50t50 -121q0 -70 -50 -120t-121 -50v-5q0 -28 -19 -44l-100 -101q-18 -21 -45 -21q-29 0 -45 19l-113 113q-19 16 -19 45v105q0 25 18 42t44 17h104h5q0 71 50 121
t120 50zM292 83q15 15 0 30l-2 2q-40 13 -70 43t-43 70q-3 7 -13 7h-102q-8 0 -13.5 -6t-5.5 -14v-104q0 -9 6 -15l113 -113q15 -15 30 0zM373 192l-85 81l85 79h-38l-68 -64v64h-28v-160h30v64l64 -64h40zM448 275h28q0 36 -39 36q-20 0 -32 -12v10h-23v-117h25v51
q-1 7 3 30q5 15 21 15q10 0 13.5 -2.5t3.5 -10.5z" />
    <glyph glyph-name="uniE0AE" unicode="&#xe0ae;" 
d="M261 171v32h21v59h-21v32h21v22q0 1 -0.5 4t-0.5 4q0 23 16 43q20 17 49 17h6q69 0 69 -53h-35q0 21 -32 21q-24 0 -30 -7t-6 -29v-22h90v-32h-90v-59h105v-32h-162zM341 107q71 0 121 50t50 120q0 71 -50 121t-121 50q-70 0 -120 -50t-50 -121t49.5 -120.5t120.5 -49.5z
M118 128h-1q-13 0 -22.5 9t-9.5 23t9.5 23t22.5 9t22.5 -9t9.5 -23t-9 -23t-22 -9zM322 147q19 -19 19 -44v-1v-1q0 -26 -19 -43l-100 -101q-16 -21 -43 -21h-2h-2q-26 0 -43 19l-113 113q-19 17 -19 43v2v105q1 24 18.5 41t41.5 18h105h1q26 0 43 -19l-15 -45l-15 15
q-5 7 -14 7h-1h-104q-15 -2 -17 -17v-105q0 -11 6 -15l113 -113q6 -6 15 -6t15 6l101 100q6 6 6 15t-6 15l-5 4z" />
    <glyph glyph-name="uniE0AF" unicode="&#xe0af;" 
d="M85 160q0 14 9.5 23t22.5 9t22.5 -9t9.5 -23t-9.5 -23t-22.5 -9t-22.5 9t-9.5 23zM388 331q21 0 28 -7q6 -9 6 -19q0 -13 -6 -19q-7 -7 -28 -7h-96v52h96zM341 448q71 0 121 -50t50 -121q0 -70 -50 -120t-121 -50v-30l-140 -141h-50l-151 151v156l34 34h137q0 71 50 121
t120 50zM299 94v19q-45 11 -78 44t-44 78h-126l-8 -9v-121l126 -126h14zM448 260q18 21 15 43q3 25 -15 43q-26 20 -55 17h-141v-84h-24v-32h24v-8h-24v-30h24v-17h40v17h24v30h-24v8l101 -2q34 -4 55 15z" />
    <glyph glyph-name="uniE0B0" unicode="&#xe0b0;" 
d="M85 160q0 14 9.5 23t22.5 9t22.5 -9t9.5 -23t-9.5 -23t-22.5 -9t-22.5 9t-9.5 23zM388 341q13 -4 13 -30q0 -21 -13 -25q-13 -2 -36 -2h-36v59h36q12 2 36 -2zM341 448q71 0 121 -50t50 -121q0 -70 -50 -120t-121 -50v-5q0 -28 -19 -44l-100 -101q-18 -21 -45 -21
q-29 0 -45 19l-113 113q-19 16 -19 45v105q0 25 18 42t44 17h104h5q0 71 50 121t120 50zM292 83q15 15 0 30l-2 2q-40 13 -70 43t-43 70q-3 7 -13 7h-102q-8 0 -13.5 -6t-5.5 -14v-104q0 -9 6 -15l113 -113q15 -15 30 0zM352 252q22 0 34 1.5t25.5 7t19.5 19.5t6 36
q0 41 -20.5 51.5t-64.5 10.5h-73v-94h-27v-32h27v-13h-27v-34h27v-36h37v36h27v34h-27v13h36z" />
    <glyph glyph-name="uniE0B1" unicode="&#xe0b1;" 
d="M85 160q0 14 9.5 23t22.5 9t22.5 -9t9.5 -23t-9.5 -23t-22.5 -9t-22.5 9t-9.5 23zM341 448q71 0 121 -50t50 -121q0 -70 -50 -120t-121 -50v-30l-140 -141h-50l-151 151v156l34 34h137q0 71 50 121t120 50zM299 94v19q-45 11 -78 44t-44 78h-126l-8 -9v-121l126 -126h14z
M341 215h43l-81 69l77 49h-43l-83 -54v54h-30v-118h30v39l23 15zM439 269l32 2v19h-38q-23 0 -36 -11q-11 -16 -9 -27v-37h28v35q0 7 4 15q4 4 19 4z" />
    <glyph glyph-name="uniE0B2" unicode="&#xe0b2;" 
d="M85 160q0 14 9.5 23t22.5 9t22.5 -9t9.5 -23t-9.5 -23t-22.5 -9t-22.5 9t-9.5 23zM341 448q71 0 121 -50t50 -121q0 -70 -50 -120t-121 -50v-5q0 -28 -19 -44l-100 -101q-18 -21 -45 -21q-29 0 -45 19l-113 113q-19 16 -19 45v105q0 25 18 42t44 17h104h5q0 71 50 121
t120 50zM292 83q15 15 0 30l-2 2q-40 13 -70 43t-43 70q-3 7 -13 7h-102q-8 0 -13.5 -6t-5.5 -14v-104q0 -9 6 -15l113 -113q15 -15 30 0zM373 192l-85 81l85 79h-38l-68 -64v64h-28v-160h30v64l64 -64h40zM448 275h28q0 36 -39 36q-20 0 -32 -12v10h-23v-117h25v51
q-1 7 3 30q5 15 21 15q10 0 13.5 -2.5t3.5 -10.5z" />
    <glyph glyph-name="uniE0B3" unicode="&#xe0b3;" 
d="M85 160q0 14 9.5 23t22.5 9t22.5 -9t9.5 -23t-9.5 -23t-22.5 -9t-22.5 9t-9.5 23zM414 305q0 -9 -7 -19q-7 -7 -27 -7h-98v52h98q20 0 27 -7q7 -10 7 -19zM341 448q71 0 121 -50t50 -121q0 -70 -50 -120t-121 -50v-30l-140 -141h-50l-151 151v156l34 34h137q0 71 50 121
t120 50zM299 94v19q-45 11 -78 44t-44 78h-126l-8 -9v-121l126 -126h14zM414 203h51l-32 30q-14 14 -28 19q16 0 34 10q18 18 15 43q3 25 -15 43q-25 18 -55 15h-143v-160h41v44h59q26 3 43 -17z" />
    <glyph glyph-name="uniE0B4" unicode="&#xe0b4;" 
d="M85 160q0 14 9.5 23t22.5 9t22.5 -9t9.5 -23t-9.5 -23t-22.5 -9t-22.5 9t-9.5 23zM393 326q0 -10 -1.5 -16t-8 -8t-11.5 -2.5t-20 -0.5h-45v57h43q18 0 25 -1t12.5 -7.5t5.5 -21.5zM341 448q71 0 121 -50t50 -121q0 -70 -50 -120t-121 -50v-5q0 -28 -19 -44l-100 -101
q-18 -21 -45 -21q-29 0 -45 19l-113 113q-19 16 -19 45v105q0 25 18 42t44 17h104h5q0 71 50 121t120 50zM292 83q15 15 0 30l-2 2q-40 13 -70 43t-43 70q-3 7 -13 7h-102q-8 0 -13.5 -6t-5.5 -14v-104q0 -9 6 -15l113 -113q15 -15 30 0zM397 183h42l-57 86q47 5 47 60
q0 21 -6 33.5t-20 18t-26 6.5t-34 1h-72v-205h36v82h11q20 0 25.5 -3.5t19.5 -26.5z" />
    <glyph glyph-name="uniE0B5" unicode="&#xe0b5;" 
d="M85 160q0 14 9.5 23t22.5 9t22.5 -9t9.5 -23t-9.5 -23t-22.5 -9t-22.5 9t-9.5 23zM341 448q71 0 121 -50t50 -121q0 -70 -50 -120t-121 -50v-30l-140 -141h-50l-151 151v157l34 33h137q0 71 50 121t120 50zM299 94v18q-45 11 -78.5 44.5t-44.5 78.5h-124l-9 -9v-121
l126 -126h14zM361 315h-55q1 20 8 28.5t29 8.5q17 0 24.5 -4t7.5 -17h36q0 53 -68 53q-39 0 -55 -17t-18 -52h-21v-28h21v-18h-20v-29h20q2 -35 18 -52t55 -17q68 0 68 52h-36q0 -13 -7 -16.5t-25 -3.5q-22 0 -29 8.5t-8 28.5h55v29h-56v18h56v28z" />
    <glyph glyph-name="uniE0B6" unicode="&#xe0b6;" horiz-adv-x="511" 
d="M85 160q0 14 9.5 23t22.5 9t22.5 -9t9.5 -23t-9.5 -23t-22.5 -9t-22.5 9t-9.5 23zM341 448q70 0 120 -50t50 -121t-49.5 -120.5t-120.5 -49.5v-30l-140 -141h-50l-151 151v157l34 33h136q0 71 50 121t121 50zM299 94v18q-45 11 -78 44.5t-45 78.5h-124l-9 -9v-121
l126 -126h14zM422 171v32h-105v60h89v32h-89v21q0 22 6.5 29t30.5 7q16 0 23.5 -4t7.5 -17h34q0 53 -68 53q-38 0 -55 -17q-15 -14 -15 -52v-20h-21v-32h21v-60h-21v-32h162z" />
    <glyph glyph-name="uniE0B7" unicode="&#xe0b7;" horiz-adv-x="511" 
d="M85 160q0 14 9.5 23t22.5 9t22.5 -9t9.5 -23t-9.5 -23t-22.5 -9t-22.5 9t-9.5 23zM341 448q70 0 120 -50t50 -121t-49.5 -120.5t-120.5 -49.5v-30l-140 -141h-50l-151 151v157l34 33h136q0 71 50 121t121 50zM299 94v18q-45 11 -78 44.5t-45 78.5h-124l-9 -9v-121
l126 -126h14zM422 171v32h-105v60h89v32h-89v21q0 22 6.5 29t30.5 7q16 0 23.5 -4t7.5 -17h34q0 53 -68 53q-38 0 -55 -17q-15 -14 -15 -52v-20h-21v-32h21v-60h-21v-32h162z" />
    <glyph glyph-name="uniE0B8" unicode="&#xe0b8;" horiz-adv-x="513" 
d="M255 448h2h2h2h2l2 -1h2h2l2 -1h2l2 -1h1l2 -1l2 -1h2l2 -1l2 -1l2 -1l1 -1h2l2 -1l2 -1l1 -1l2 -2l2 -1l1 -1l2 -1l2 -1l1 -2l2 -1l1 -1l1 -2l179 -178l1 -1l1 -2l2 -1l1 -2l1 -1l1 -2l2 -2l1 -1l1 -2l1 -2l1 -1l1 -2l1 -2l1 -2v-2l1 -1l1 -2l1 -2v-2l1 -2l1 -2v-2v-2
l1 -2v-2l1 -2v-2v-2v-2v-2l1 -2v-2v-14v-2l-1 -2v-2v-2v-2v-2l-1 -2v-2v-2l-1 -2v-1l-1 -2l-1 -2v-2l-1 -2l-1 -2v-2l-1 -2l-1 -1l-1 -2l-1 -2l-1 -2l-1 -1l-1 -2l-1 -2l-2 -1l-1 -2l-1 -2l-1 -1l-2 -2l-1 -1l-1 -1l-157 -157l-2 -2l-1 -1l-2 -1l-1 -2l-2 -1l-1 -1l-2 -1
l-2 -1l-1 -2l-2 -1l-2 -1l-1 -1l-2 -1h-2l-2 -1l-2 -1l-2 -1h-1l-2 -1l-2 -1h-2l-2 -1h-2l-2 -1h-2h-2l-2 -1h-2h-2h-2h-2h-2h-14h-2h-2h-2h-2h-2l-2 1h-2h-2l-2 1h-2l-2 1h-2l-2 1l-2 1h-1l-2 1l-2 1l-2 1h-2l-2 1l-1 1l-2 1l-2 1l-1 1l-2 2l-2 1l-1 1l-2 1l-1 2l-2 1l-1 1
l-2 2l-178 178l-1 1l-2 2l-1 1l-1 2l-2 1l-1 2l-1 2l-1 1l-1 2l-1 2l-1 1l-1 2l-1 2l-1 2l-1 1l-1 2v2l-1 2l-1 2v2l-1 2l-1 2v2v2l-1 2v2v2l-1 2v2v2v2v2v176v2v2v2v2l1 2v2v2l1 2v1v2l1 2v2l1 2l1 1v2l1 2l1 2v1l1 2l1 1l1 2l1 2l1 1l1 2l1 1l1 2l1 1l1 2l1 1l2 1l1 2l1 1
l2 1l1 1l1 2l2 1l1 1l1 1l2 1l1 1l2 1l2 1l1 1l2 1l1 1l2 1h2l1 1l2 1l2 1h2l1 1h2l2 1h2l2 1h1h2l2 1h2h2h2h2h2h177h2zM76 405h-1h-1h-1h-1h-1h-1l-1 -1h-1h-1h-1l-1 -1h-1h-1l-1 -1h-1l-1 -1l-1 -1h-1l-1 -1h-1v-1h-1l-1 -1l-1 -1l-1 -1v-1h-1v-1h-1v-1l-1 -1l-1 -1v-1
h-1v-1v-1h-1v-1v-1l-1 -1v-1l-1 -1v-1v-1v-1v-1l-1 -1v-1v-1v-1v-1v-1v-176v-1v-1v-1v-1v-1v-1l1 -1v-1v-1v-1v-1l1 -1v-1l1 -1v-1v-1l1 -1v-1l1 -1l1 -1v-1l1 -1v-1l1 -1l1 -1l1 -1v-1h1l1 -1l177 -178l1 -1h1l1 -1l1 -1l1 -1h1v-1h1l1 -1h1l1 -1h1v-1h1h1l1 -1h1h1l1 -1h1
h1h1v-1h1h1h1h1h1h1h1h1h14h1h1h1h1h1h1h1h1v1h1h1h1l1 1h1h1l1 1h1h1v1h1l1 1h1l1 1h1v1h1l1 1l1 1l1 1l1 1h1l156 157l1 1l1 1l1 1l1 1v1l1 1l1 1v1l1 1v1l1 1v1h1v1v1l1 1v1v1v1l1 1v1v1v1v1v1v1l1 1v2v13l-1 1v1v1v1v1v1v1v1v1l-1 1v1v1l-1 1v1v1l-1 1v1l-1 1v1h-1v1
l-1 1v1l-1 1l-1 1v1l-1 1h-1v1l-1 1l-178 178h-1v1l-1 1h-1l-1 1v1h-1l-1 1h-1v1h-1l-1 1h-1h-1l-1 1h-1v1h-1h-1h-1l-1 1h-1h-1h-1l-1 1h-1h-1h-1h-1h-1h-2h-176zM192 299q0 -18 -12 -30.5t-30 -12.5t-30.5 12.5t-12.5 30.5t12.5 30t30.5 12t30 -12t12 -30v0z" />
    <glyph glyph-name="uniE0B9" unicode="&#xe0b9;" 
d="M447 160q0 9 5 18.5t15.5 21.5t11.5 13q2 -3 8.5 -10.5t11 -13t8.5 -14t4 -15.5q0 -14 -9.5 -23t-22.5 -9t-22.5 9t-9.5 23zM467 34l45 -46l-30 -30l-45 45l-15 -15l-30 -30l-31 30l-15 15l-15 -15l-30 -30l-30 30l-15 15l-15 -15l-30 -30l-30 30l-15 15l-15 -15l-31 -30
l-30 30l-15 15l-45 -45l-30 30l45 46l30 30l30 -30l15 -16l16 16l30 30l30 -30l15 -16l15 16l30 30l30 -30l15 -16l15 16l30 30l30 -30l16 -16l15 16l30 30zM439 307l-151 -179h-288v42v128v21v22h85v42h-42v43h127v-43h-42v-42h106l34 -34l147 76l96 -81l-28 -33zM43 170
h225l134 159l-145 -72l-40 41h-174v-128z" />
    <glyph glyph-name="uniE0BA" unicode="&#xe0ba;" horiz-adv-x="421" 
d="M0 402h421v-420h-421v420zM393 9v366h-366v-366h366z" />
    <glyph glyph-name="uniE0BB" unicode="&#xe0bb;" 
d="M182 438l17 -40q-19 -5 -35 -12l-16 39q22 10 34 13zM312 207l48 13v-28h-48v15zM200 207v-15h-48v28zM295 207v-21q0 -16 -16 -16l-46 1q-16 0 -16 16v20h78zM78 378l33 -28q-16 -14 -25 -27l-33 28q13 17 25 27zM13 278l41 -11q-8 -21 -10 -35l-41 10q2 12 10 36z
M0 158l42 10q1 -12 7 -36l-42 -9q-3 14 -7 35zM43 46l33 28q10 -15 23 -29l-33 -27q-16 18 -23 28zM411 210v-87v-38h-75v38h-160v-38h-75v38v14v1v77l16 45l21 14l22 45h191l23 -45l21 -14zM133 208v-53h246v52l-11 33l-19 12l-17 35h-152l-18 -35l-18 -12zM256 448
q106 0 180.5 -74t75.5 -180t-73.5 -181.5t-181.5 -76.5q-75 0 -139 40l22 36q52 -33 116 -33q89 1 151.5 63.5t61.5 150.5q-1 87 -63 149.5t-150 62.5v43z" />
    <glyph glyph-name="uniE0BC" unicode="&#xe0bc;" horiz-adv-x="510" 
d="M503 49q7 -7 7 -15v-75q0 -7 -7 -14q-9 -9 -12 -9h-75q-9 0 -15 6l-21 22q-7 7 -7 15v42h-42q-22 0 -22 22v42h-42q-8 0 -15 7l-64 64q-23 -7 -39 -7q-61 0 -104 43q-45 45 -45 107q0 60 43 106q46 43 106 43q62 0 105 -43t43 -104q0 -25 -5 -41zM75 224q31 -31 75 -31
t76 31q30 30 30 75t-32 74q-35 32 -75 32q-45 0 -74 -32q-32 -29 -32 -74q0 -46 32 -75zM469 -21v44l-196 197q-10 -15 -19 -24q-11 -11 -26 -21l47 -47h56q21 0 21 -21v-43h43q21 0 21 -21v-56l9 -8h44zM128 367q20 0 33.5 -13.5t13.5 -33.5t-13.5 -33.5t-33.5 -13.5
t-33.5 13.5t-13.5 33.5t13.5 33.5t33.5 13.5zM128 303q15 0 15 17q0 15 -15 15q-17 0 -17 -15q0 -7 5 -12t12 -5z" />
    <glyph glyph-name="uniE0BD" unicode="&#xe0bd;" 
d="M256 -64q-106 0 -181 75t-75 181t75 181t181 75t181 -75t75 -181t-75 -181t-181 -75zM256 405q-88 0 -150.5 -62.5t-62.5 -150.5t62.5 -150.5t150.5 -62.5t150.5 62.5t62.5 150.5t-62.5 150.5t-150.5 62.5zM256 363q70 0 120.5 -50.5t50.5 -120.5t-50.5 -120.5
t-120.5 -50.5t-120.5 50.5t-50.5 120.5t50.5 120.5t120.5 50.5zM369 251q-29 56 -92 67v-66q20 -7 30 -21zM235 318q-63 -11 -92 -67l62 -20q10 14 30 21v66zM128 192q0 -53 37 -90l38 54q-11 16 -11 34l-62 20q-2 -12 -2 -18zM199 77q25 -13 57 -13q31 0 57 14l-39 53
q-9 -3 -18 -3t-18 3zM347 103q37 37 37 89q0 13 -1 19l-63 -21q0 -18 -11 -34z" />
    <glyph glyph-name="uniE0BE" unicode="&#xe0be;" horiz-adv-x="439" 
d="M219 448q91 0 155.5 -64t64.5 -155t-64.5 -155.5t-155.5 -64.5t-155 64.5t-64 155.5t64 155t155 64zM219 64q68 0 116.5 48.5t48.5 116.5t-48.5 116t-116.5 48t-116 -48t-48 -116t48 -116.5t116 -48.5zM219 357q53 0 90.5 -37.5t37.5 -90.5t-37.5 -90.5t-90.5 -37.5
t-90.5 37.5t-37.5 90.5t37.5 90.5t90.5 37.5zM316 280q-26 48 -78 57v-57q16 -7 25 -18zM201 337q-52 -9 -78 -57l53 -18q9 11 25 18v57zM110 229q0 -42 28 -73l35 44q-8 13 -8 28l-54 17q-1 -6 -1 -16zM166 133q25 -14 53 -14q29 0 54 14l-36 44q-9 -3 -18 -3q-8 0 -17 3z
M301 156q28 31 28 73q0 10 -1 16l-54 -17q0 -15 -8 -28z" />
    <glyph glyph-name="uniE0BF" unicode="&#xe0bf;" horiz-adv-x="307" 
d="M0 -64v512h51v-512h-51zM256 -64v512h51v-512h-51z" />
    <glyph glyph-name="uniE0C0" unicode="&#xe0c0;" horiz-adv-x="219" 
d="M18 448q8 0 13.5 -5.5t5.5 -12.5v-329q0 -7 -5.5 -13t-13.5 -6q-7 0 -12.5 5.5t-5.5 13.5v329q0 8 5 13t13 5zM201 448q7 0 12.5 -5t5.5 -13v-329q0 -8 -5.5 -13.5t-12.5 -5.5t-12.5 5.5t-5.5 13.5v329q0 8 5.5 13t12.5 5z" />
    <glyph glyph-name="uniE0C1" unicode="&#xe0c1;" 
d="M508 17q-19 -45 -55 -63t-64 -18q-115 0 -255 133q-41 39 -70 82.5t-41.5 80.5t-17 56t-5.5 35q-1 11 1.5 23t9.5 29t25.5 35t45.5 32q8 5 18.5 6t14.5 -3q1 -1 17 -28t32.5 -54.5t17.5 -28.5q3 -5 3 -11q0 -8 -10 -18q-7 -7 -23 -19q-8 -6 -22 -20q-9 -9 -9 -17
q0 -43 80 -113q32 -28 58 -47.5t36.5 -25.5t12.5 -6q3 -2 7 -2q9 0 17 11q3 4 18 22.5t18 22.5q10 10 18 10q6 0 10 -3q1 -1 29 -17t55 -32t28 -17q8 -6 0 -35v0z" />
    <glyph glyph-name="uniE0C2" unicode="&#xe0c2;" horiz-adv-x="516" 
d="M510 313q5 -12 6 -13q0 -30 -26 -48l-71 -47q-16 -9 -31 -9h-8q-21 3 -34 16l-28 29h-3l-107 -106v-3l30 -28q13 -13 16 -35v-5q0 -15 -9 -31l-48 -71q-18 -26 -47 -26q-15 0 -24 5l-60 30q-30 15 -48 43t-18 61q0 47 35 82l270 260q34 31 81 31q38 0 69 -23.5t41 -60.5z
M463 285q7 7 5 13v4l-15 51q-5 23 -24.5 38t-44.5 15q-29 0 -49 -20l-269 -258q-22 -22 -22 -53q0 -46 40 -66l59 -29q11 -3 18 5l47 70q0 1 1 2.5t1 2.5v4q0 6 -3 9l-30 28q-12 15 -12 32q0 23 12 30l106 106q12 13 32 12.5t32 -12.5l28 -29q4 -4 9 -4h4q1 0 1.5 1t1.5 1z
" />
    <glyph glyph-name="uniE0C3" unicode="&#xe0c3;" 
d="M93 299q-27 6 -66 6q15 27 19 33q28 -7 61 -21q19 -8 48 -26l21 -15q-13 6 -25 11q-22 9 -55 15zM130 340l-3 -3q-34 16 -63 24q9 10 27 26q25 -14 53 -36q22 -19 40 -38q3 -3 5.5 -6t6 -7.5t5.5 -6.5q-9 8 -22 17q-29 20 -49 30zM62 208v-5q-32 -11 -61 -27q-1 5 -1 16
q0 15 1 22q21 6 64 11q20 2 35 2h19q8 0 26 -2l-27 -3q-22 -3 -56 -14zM73 257q-2 -2 -2 -4q-22 -1 -66 -11q5 24 10 37h4q33 0 61 -5q35 -7 52 -13q4 -2 12.5 -5t12.5 -4q-9 2 -27 4t-33 2q-17 0 -24 -1zM65 157q0 -1 0.5 -2t0.5 -2q-27 -18 -52 -43q-8 26 -10 37
q30 18 58 28q29 10 52 15q15 4 26 5q-15 -5 -25 -10q-23 -9 -50 -28zM221 383l-4 -1q-18 27 -43 52q26 8 37 10q18 -30 28 -58t15 -53q4 -16 5 -25q-5 15 -10 25q-9 23 -28 50zM80 109l2 -5q-25 -29 -39 -54q-10 15 -19 33q28 28 49 42q13 10 47 28q4 2 11.5 6t11.5 6
q-8 -5 -22 -17q-28 -23 -41 -39zM404 318l-3 3q16 34 24 63q14 -13 27 -27q-12 -21 -37 -53q-19 -22 -38 -40q-5 -5 -19 -17q8 9 17 22q16 23 29 49zM447 227q0 1 -0.5 2t-0.5 2q27 18 52 43q8 -26 10 -37q-30 -18 -58 -28t-53 -15q-16 -4 -25 -5q15 5 25 10q23 9 50 28z
M432 275l-2 4q23 27 39 55q15 -22 19 -33q-28 -28 -49 -42q-13 -10 -47 -28q-4 -2 -11.5 -6t-11.5 -6q8 5 22 17q28 23 41 39zM272 386h-5q-11 32 -27 61q5 1 16 1q15 0 22 -1q6 -21 11 -64q2 -20 2 -35v-19q0 -8 -2 -26l-3 27q-3 22 -14 56zM340 272q7 13 11 25q9 22 15 55
l-3 3q6 27 6 66q27 -15 33 -19q-7 -28 -21 -61q-8 -19 -26 -48zM321 375l-4 1q-2 34 -11 67q24 -5 37 -10v-4q0 -33 -5 -61q-8 -38 -13 -53l-9 -24q2 9 4 27t2 33q0 17 -1 24zM339 16l4 2q27 -23 55 -39q-22 -15 -33 -19q-28 28 -42 49q-10 13 -28 47q-2 4 -6 11.5t-6 11.5
q5 -8 17 -22q23 -28 39 -41zM291 1l4 1q18 -27 43 -52q-26 -8 -37 -10q-18 30 -28 58t-15 53q-4 16 -5 25q5 -15 10 -25q9 -23 28 -50zM382 44l3 3q34 -16 63 -24q-13 -14 -27 -27q-21 12 -53 37q-23 19 -40 38q-5 5 -17 19q9 -8 22 -17q23 -16 49 -29zM439 127q1 1 1 4
q34 2 67 11q-5 -24 -10 -37h-4q-33 0 -61 5q-38 8 -53 13l-24 9q9 -2 27 -4t33 -2q16 0 24 1zM451 181q32 11 61 27v-4v-3.5v-4v-4.5q0 -15 -1 -22q-22 -6 -63 -11q-20 -2 -36 -2h-18q-9 0 -27 2q4 1 14 2t14 1q21 3 55 14q1 2 1 5zM240 -2h5q11 -32 27 -61q-5 -1 -16 -1
q-15 0 -22 1q-6 21 -11 64q-2 20 -2 35v19q0 8 2 26l3 -27q3 -22 14 -56zM416 82l3 3q31 -7 66 -7q-12 -21 -19 -32q-28 7 -61 21q-19 8 -48 26l-21 15q13 -7 25 -11q22 -9 55 -15zM191 9l4 -2q1 -22 11 -66q-24 5 -37 10v4q0 33 5 61q7 35 13 52q1 4 3.5 12.5t4.5 12.5
q-2 -9 -4 -27q-1 -9 -1 -33q0 -17 1 -24zM108 66l3 -3q-16 -34 -24 -63q-14 13 -27 27q12 21 37 53q22 26 37 40q3 3 6 5.5t7.5 6t6.5 5.5q-8 -9 -17 -22q-16 -23 -29 -49zM217 328q2 -4 6 -11.5t6 -11.5q-5 8 -17 22q-23 28 -39 41l-4 -2q-27 23 -55 39q22 15 33 19
q28 -28 42 -49q10 -13 28 -47zM172 112q-6 -13 -11 -25q-9 -22 -15 -55l3 -3q-6 -27 -6 -66q-27 15 -33 19q7 28 21 61q8 19 26 48q2 3 4.5 6.5t5.5 8t5 6.5z" />
    <glyph glyph-name="uniE0C4" unicode="&#xe0c4;" horiz-adv-x="358" 
d="M0 -64v512l358 -255zM43 365v-346l242 174z" />
    <glyph glyph-name="uniE0C5" unicode="&#xe0c5;" horiz-adv-x="341" 
d="M320 239q21 -18 21 -47t-21 -47l-213 -192q-17 -17 -43 -17q-27 0 -45.5 18.5t-18.5 45.5v384q0 27 18.5 45.5t45.5 18.5q26 0 43 -17zM292 177q7 3 7 15q0 8 -7 15l-213 192q-6 6 -15 6q-21 0 -21 -21v-384q0 -21 21 -21q9 0 15 6z" />
    <glyph glyph-name="uniE0C6" unicode="&#xe0c6;" 
d="M188 448h136v-188h188v-136h-188v-188h-136v188h-188v136h188v188z" />
    <glyph glyph-name="uniE0C7" unicode="&#xe0c7;" horiz-adv-x="439" 
d="M421 247q7 0 12.5 -5.5t5.5 -12.5q0 -8 -5.5 -13.5t-12.5 -5.5h-183v-183q0 -7 -5.5 -12.5t-13.5 -5.5q-7 0 -12.5 5.5t-5.5 12.5v183h-183q-7 0 -12.5 5.5t-5.5 13.5q0 7 5 12.5t13 5.5h183v183q0 8 5.5 13t12.5 5q8 0 13.5 -5.5t5.5 -12.5v-183h183z" />
    <glyph glyph-name="uniE0C8" unicode="&#xe0c8;" horiz-adv-x="471" 
d="M390 285q-34 0 -57 23t-23 57t23 57t57 23t57 -23t23 -57q2 -31 -22 -55.5t-58 -24.5zM390 410q-16 0 -28.5 -12.5t-12.5 -29.5t12.5 -29.5t28.5 -12.5t29 13t13 29q2 17 -10.5 29.5t-31.5 12.5zM131 410l125 -96l-125 -93v48h-83v93l83 -4v52zM67 -64l-67 80l147 131
q51 51 106 29q29 0 41 29l5 7q5 8 11.5 17t17 20t22 18t26.5 10.5t30 -2.5q17 0 36 -19q11 -11 6 -35v0l-48 -138v-3q0 -3 -8 -12t-27 -18t-42 -8l-86 12q-38 3 -64 -19zM54 13l16 -23l74 71q32 32 96 32l86 -13q15 0 25.5 6.5t13.5 12.5l48 131v4q-3 3 -10 3h-3h-3
q-29 10 -67 -51q-15 -36 -41.5 -47t-48.5 -5h-3q-16 8 -30 3t-22.5 -12t-8.5 -10z" />
    <glyph glyph-name="uniE0C9" unicode="&#xe0c9;" 
d="M107 235v42h234v-42h-234zM107 149v43h234v-43h-234zM107 64v43h234v-43h-234zM405 235h43v-256v-43h-43h-405v43v384v42h43h234v-42h-234v-384h362v256zM512 426l-58 -97l-22 -37l-91 55l21 36l55 -32l58 97z" />
    <glyph glyph-name="uniE0CA" unicode="&#xe0ca;" horiz-adv-x="470" 
d="M448 363l22 -69v-141v-46h-106v46h-256v-47h-107v47v142l23 68l30 20l33 65h298l32 -65zM44 288v-92h384v91l-16 48l-28 19l-26 51h-245l-26 -51l-27 -19zM342 260v21l64 21v-42h-64zM65 260v43l64 -22v-21h-64zM150 260v21h171v-21q0 -18 -12.5 -30.5t-30.5 -12.5h-85
q-18 0 -30.5 12.5t-12.5 30.5zM0 21v43h470v-43h-64v-85h-42v85h-256v-85h-43v85h-65z" />
    <glyph glyph-name="uniE0CB" unicode="&#xe0cb;" horiz-adv-x="495" 
d="M119 -64v43h256v-43h-256zM399 406h96l-3 -24q-7 -48 -43 -96t-80 -67q-14 -63 -53 -116l40 -82h-217l40 79q-38 53 -53 117q-45 19 -81 67t-43 96l-2 24h95q0 5 -0.5 9.5t-1 7t-0.5 3.5l-1 24h310l-1 -22q0 -1 -0.5 -3.5t-1 -7t-0.5 -9.5zM50 363q7 -23 25.5 -49
t37.5 -39q-7 32 -14 88h-49zM286 64l-23 47l12 11q34 32 54.5 116.5t27.5 166.5h-220q7 -82 27.5 -167t54.5 -117l11 -10l-23 -47h79zM381 275q19 13 37 39t25 49h-48q-6 -53 -14 -88z" />
    <glyph glyph-name="uniE0CC" unicode="&#xe0cc;" 
d="M512 320v-277h-85v-107h-342v107h-85v277h85v128h342v-128h85zM128 405v-85h256v85h-256zM384 -21v192h-256v-192h256zM469 85v192h-42h-342h-42v-192h42v128h342v-128h42zM171 85v43h170v-43h-170zM171 21v43h106v-43h-106z" />
    <glyph glyph-name="uniE0CD" unicode="&#xe0cd;" horiz-adv-x="514" 
d="M192 22q-22 0 -22 20q0 9 6.5 15.5t15.5 6.5h64q22 0 22 -20q0 -9 -6.5 -15.5t-15.5 -6.5h-64zM192 86q-9 0 -15.5 6.5t-6.5 15.5t6.5 15.5t15.5 6.5h128q22 0 22 -22q0 -9 -6.5 -15.5t-15.5 -6.5h-128zM448 320q26 0 45 -19t21 -45v-64v-86q0 -26 -19 -45t-45 -19h-22
v-42q0 -26 -19 -45t-45 -19h-214q-26 0 -45 19t-19 45v42h-22q-26 0 -45 19t-19 45v86v64q0 26 19 45t45 19h22v64q0 27 18.5 45.5t45.5 18.5h212q26 0 45 -19t19 -45v-64h22zM128 384v-64h258v64q0 9 -6.5 15.5t-15.5 6.5h-214q-9 0 -15.5 -6.5t-6.5 -15.5zM384 0v170h-256
v-86v-42v-42q0 -9 6.5 -15.5t15.5 -6.5h212q9 0 15.5 6.5t6.5 15.5zM470 106h2v86v64q0 9 -6.5 15.5t-15.5 6.5h-22h-342h-22q-9 0 -15.5 -6.5t-6.5 -15.5v-64v-86q0 -9 6.5 -15.5t15.5 -6.5h22v128h340v-128h22q9 0 15.5 6.5t6.5 15.5z" />
    <glyph glyph-name="uniE0CE" unicode="&#xe0ce;" horiz-adv-x="384" 
d="M384 -64h-384v64q0 80 56 136t136 56t136 -56t56 -136v-64zM43 -21h298v21q0 62 -43.5 105.5t-105.5 43.5t-105.5 -43.5t-43.5 -105.5v-21zM192 235q-44 0 -75.5 31t-31.5 75t31.5 75.5t75.5 31.5t75.5 -31.5t31.5 -75.5t-31.5 -75t-75.5 -31zM192 405q-26 0 -45 -19
t-19 -45t19 -45t45 -19t45 19t19 45t-19 45t-45 19z" />
    <glyph glyph-name="uniE0CF" unicode="&#xe0cf;" horiz-adv-x="384" 
d="M192 407q-30 0 -51 -21q-21 -24 -21 -51q0 -31 20.5 -52t51.5 -21t52 21t21 52t-21 51.5t-52 20.5v3v-3zM192 220q-45 0 -79 34t-34 81t33.5 80t79.5 33q48 0 80.5 -32.5t32.5 -80.5q0 -49 -32 -81q-34 -34 -81 -34zM342 -21q5 40 -13 77t-54 61q-37 24 -83 24
q-53 0 -89 -30q-36 -27 -50.5 -63.5t-9.5 -68.5h299zM26 -64q-21 0 -24 21q-16 117 79 190q50 36 111 36q86 0 139 -59q64 -67 51 -162q-3 -24 -26 -24h-330v-2z" />
    <glyph glyph-name="uniE0D0" unicode="&#xe0d0;" 
d="M256 448q106 0 181 -75t75 -181t-75 -181t-181 -75t-181 75t-75 181t75 181t181 75zM256 -22q88 0 151 63t63 151t-63 151t-151 63t-151 -63t-63 -151t63 -151t151 -63zM223 75q0 13 9.5 23t23.5 10t23.5 -10t9.5 -23t-9.5 -23t-23.5 -10t-23.5 10t-9.5 23zM256 342
q36 0 61 -25t25 -61q0 -38 -26 -62l-31 -29q-7 -6 -7 -15t-6.5 -15.5t-15.5 -6.5t-15.5 6.5t-6.5 15.5q0 29 20 46l31 29q13 13 13 31t-12 30t-30 12t-30 -12t-12 -30q0 -9 -6.5 -15.5t-15.5 -6.5t-15.5 6.5t-6.5 15.5q0 36 25 61t61 25z" />
    <glyph glyph-name="uniE0D1" unicode="&#xe0d1;" 
d="M119 448h223v-107h-43v64h-128v-128h-128v-171h128v-42h-171v265zM51 320h77v76zM395 23l-64 64v105h42v-87l52 -52zM352 -64q-66 0 -113 47t-47 113t47 113t113 47t113 -47t47 -113t-47 -113t-113 -47zM352 213q-49 0 -83 -34t-34 -83t34 -83t83 -34t83 34t34 83t-34 83
t-83 34zM299 277v43h106v-43h-106z" />
    <glyph glyph-name="uniE0D2" unicode="&#xe0d2;" horiz-adv-x="510" 
d="M196 21h-66l-130 214v213h197v-213h-111zM509 21h-66l-130 214v213h197v-213h-111z" />
    <glyph glyph-name="uniE0D3" unicode="&#xe0d3;" horiz-adv-x="510" 
d="M130 448h66l-110 -214h111v-213h-197v213zM443 448h66l-110 -214h111v-213h-197v213z" />
    <glyph glyph-name="uniE0D4" unicode="&#xe0d4;" horiz-adv-x="510" 
d="M313 448h67l130 -214v-213h-197v213h110zM0 448h67l130 -214v-213h-197v213h110z" />
    <glyph glyph-name="uniE0D5" unicode="&#xe0d5;" horiz-adv-x="510" 
d="M380 21h-67l110 214h-110v213h197v-213zM67 21h-67l110 214h-110v213h197v-213z" />
    <glyph glyph-name="uniE0D6" unicode="&#xe0d6;" 
d="M233 279l-77 -180h70q-38 -35 -92 -35q-56 0 -95 37.5t-39 90.5t39 90.5t95 37.5q58 0 99 -41zM444 175l44 -55h-78q-3 6 -9 14t-22.5 22t-32.5 14h-54l-26 -50h-78l60 140h195h6t14 -0.5t18.5 -2t16.5 -5t12 -9.5t1.5 -15.5t-13.5 -22.5q-23 -29 -54 -29v-1zM438 222
q0 8 -5 11.5t-11 3.5h-5h-90l-25 -45h99q15 0 24.5 7.5t10.5 14.5z" />
    <glyph glyph-name="uniE0D7" unicode="&#xe0d7;" 
d="M394 448h41v-124h-124v41h62q-60 45 -138 40t-133 -59q-48 -48 -58.5 -114.5t20.5 -125.5l-35 -21q-38 72 -26 152t70 138q65 65 157 72t164 -46v47zM485 295q36 -71 23.5 -150t-69.5 -136q-73 -73 -176 -73q-79 0 -145 47v-47h-41v124h124v-41h-62q56 -42 124 -42
q86 0 147 61q47 47 58 112t-18 123z" />
    <glyph glyph-name="uniE0D8" unicode="&#xe0d8;" horiz-adv-x="427" 
d="M213 -64q-89 0 -151 62t-62 151t62.5 151.5t150.5 62.5q89 0 151.5 -62.5t62.5 -151.5q0 -88 -62.5 -150.5t-151.5 -62.5zM213 320q-70 0 -120 -50t-50 -121t49.5 -120.5t120.5 -49.5t121 50t50 120q0 71 -50 121t-121 50zM307 85l-30 -30l-85 86v136h43v-119zM127 405
v43h172v-43h-172z" />
    <glyph glyph-name="uniE0D9" unicode="&#xe0d9;" 
d="M0 171v42h512v-42h-512z" />
    </font>
</defs>
</svg>
