<?xml version="1.0" encoding="UTF-8"?>
<svg width="30px" height="29px" viewBox="0 0 30 29" version="1.1" xmlns="http://www.w3.org/2000/svg" xmlns:xlink="http://www.w3.org/1999/xlink">
    <!-- Generator: Sketch 63.1 (92452) - https://sketch.com -->
    <title>Shape</title>
    <desc>Created with Sketch.</desc>
    <g id="Page-1" stroke="none" stroke-width="1" fill="none" fill-rule="evenodd">
        <g id="gyro" fill="#0C121C" fill-rule="nonzero">
            <path d="M25.2,24.3 C27.7,21.6 29.1,18.2 29.1,14.5 C29.1,10.5 27.5,6.9 24.9,4.3 C24.9,4.3 24.9,4.3 24.9,4.2 C24.9,4.2 24.8,4.1 24.8,4.1 C22,1.6 18.5,0 14.5,0 C10.8,0 7.4,1.4 4.7,3.9 L3.5,2.7 C3.3,2.5 2.9,2.5 2.7,2.7 C2.5,2.9 2.5,3.3 2.7,3.5 L3.9,4.7 C1.4,7.4 -1.77635684e-15,10.8 -1.77635684e-15,14.5 C-1.77635684e-15,18.4 1.5,22 4.2,24.8 C7,27.5 10.6,29 14.5,29 C18.2,29 21.6,27.6 24.3,25.1 L25.5,26.3 C25.6,26.4 25.8,26.5 25.9,26.5 C26,26.5 26.2,26.4 26.3,26.3 C26.5,26.1 26.5,25.7 26.3,25.5 L25.2,24.3 Z M23.6,5.4 C23.6,5.4 23.6,5.4 23.6,5.4 C24,6 22.7,9 19.1,13.3 C18.6,12.7 18.1,12.2 17.5,11.6 C16.9,11 16.4,10.5 15.8,10 C19.3,7 22.2,5.4 23.4,5.4 C23.5,5.4 23.5,5.4 23.6,5.4 Z M12.3,13.2 C12.7,12.8 14,11.5 14.4,11.1 C15,11.6 15.6,12.2 16.2,12.8 C16.8,13.4 17.4,14 17.9,14.6 C17.5,15 16.3,16.3 15.8,16.7 C15.4,17.1 14.9,17.6 14.5,17.9 C13.9,17.4 13.3,16.8 12.7,16.2 C12.1,15.6 11.6,15 11,14.4 C11.5,14 11.9,13.6 12.3,13.2 Z M10,13.2 C10,13.2 6.2,8.9 7.5,7.6 C9,6.1 13.1,10.1 13.1,10.1 L10,13.2 Z M18.9,15.7 C18.9,15.7 18.9,15.8 19,15.8 C19,15.8 19,15.8 19,15.8 C19,15.9 19.1,15.9 19.1,16 C19.9,17 22.5,20.2 21.3,21.3 C19.8,22.8 15.7,18.9 15.7,18.9 L18.9,15.7 Z M14.5,1.7 C17.2,1.7 19.8,2.6 21.9,4 C19.8,4.7 17.1,6.6 14.5,8.9 C12.1,7 9.8,5.9 8.2,5.9 C7.7,5.9 7.3,6 7,6.2 L5.9,5 C8.2,2.9 11.3,1.7 14.5,1.7 Z M4,21.9 C2.5,19.8 1.7,17.2 1.7,14.5 C1.7,11.3 2.9,8.2 5.1,5.9 L6.2,7 C5.8,7.8 5.7,9.1 6.9,11.3 C7.4,12.3 8.1,13.3 8.9,14.4 C7.4,16.1 6.2,17.7 5.3,19.2 C4.7,20.2 4.3,21.1 4,21.9 Z M5.4,23.6 C5,23.2 6.1,20.2 9.9,15.7 C10.4,16.3 10.9,16.8 11.5,17.4 C12.1,18 12.6,18.5 13.2,19 C9.7,22 6.8,23.6 5.6,23.6 C5.5,23.6 5.4,23.6 5.4,23.6 Z M14.5,27.3 C11.8,27.3 9.3,26.5 7.1,25 C9.2,24.3 11.9,22.4 14.6,20.1 C17,22 19.3,23.1 20.9,23.1 C21.4,23.1 21.8,23 22.1,22.8 L23.2,23.9 C20.8,26.1 17.7,27.3 14.5,27.3 Z M24,23.1 L22.9,22 C23,21.7 23.2,21.3 23.2,20.8 C23.2,19.2 22.1,16.9 20.2,14.5 C21.7,12.8 22.9,11.2 23.8,9.7 C24.4,8.7 24.8,7.8 25.1,7.1 C26.6,9.2 27.4,11.7 27.4,14.5 C27.3,17.7 26.1,20.8 24,23.1 Z" id="Shape"></path>
        </g>
    </g>
</svg>