<?xml version="1.0" encoding="utf-8"?>
<!-- Generator: Adobe Illustrator 19.1.0, SVG Export Plug-In . SVG Version: 6.00 Build 0)  -->
<svg version="1.1" id="Layer_1" xmlns="http://www.w3.org/2000/svg" xmlns:xlink="http://www.w3.org/1999/xlink" x="0px" y="0px"
	 viewBox="0 0 56.7 56.7" style="enable-background:new 0 0 56.7 56.7;" xml:space="preserve">
<style type="text/css">
	.st0{fill:#FFFFFF;}
</style>
<g>
	<path class="st0" d="M34,30.8C34,30.8,34,30.8,34,30.8c0,0.1,0.1,0.1,0.1,0.2C34.1,31,34,30.9,34,30.8z"/>
	<path class="st0" d="M40.2,39.3c2.5-2.7,3.9-6.1,3.9-9.8c0-4-1.6-7.6-4.2-10.2c0,0,0,0,0-0.1c0,0-0.1-0.1-0.1-0.1
		C37,16.6,33.5,15,29.5,15c-3.7,0-7.1,1.4-9.8,3.9l-1.2-1.2c-0.2-0.2-0.6-0.2-0.8,0c-0.2,0.2-0.2,0.6,0,0.8l1.2,1.2
		c-2.5,2.7-3.9,6.1-3.9,9.8c0,3.9,1.5,7.5,4.2,10.3C22,42.5,25.6,44,29.5,44c3.7,0,7.1-1.4,9.8-3.9l1.2,1.2c0.1,0.1,0.3,0.2,0.4,0.2
		c0.1,0,0.3-0.1,0.4-0.2c0.2-0.2,0.2-0.6,0-0.8L40.2,39.3z M38.6,20.4C38.6,20.4,38.6,20.4,38.6,20.4c0.4,0.6-0.9,3.6-4.5,7.9
		c-0.5-0.6-1-1.1-1.6-1.7c-0.6-0.6-1.1-1.1-1.7-1.6c3.5-3,6.4-4.6,7.6-4.6C38.5,20.4,38.5,20.4,38.6,20.4z M27.3,28.2
		c0.4-0.4,1.7-1.7,2.1-2.1c0.6,0.5,1.2,1.1,1.8,1.7c0.6,0.6,1.2,1.2,1.7,1.8c-0.4,0.4-1.6,1.7-2.1,2.1c-0.4,0.4-0.9,0.9-1.3,1.2
		c-0.6-0.5-1.2-1.1-1.8-1.7c-0.6-0.6-1.1-1.2-1.7-1.8C26.5,29,26.9,28.6,27.3,28.2z M25,28.2c0,0-3.8-4.3-2.5-5.6
		c1.5-1.5,5.6,2.5,5.6,2.5L25,28.2z M33.9,30.7c0,0,0,0.1,0.1,0.1c0,0,0,0,0,0c0,0.1,0.1,0.1,0.1,0.2c0.8,1,3.4,4.2,2.2,5.3
		c-1.5,1.5-5.6-2.4-5.6-2.4L33.9,30.7z M29.5,16.7c2.7,0,5.3,0.9,7.4,2.3c-2.1,0.7-4.8,2.6-7.4,4.9c-2.4-1.9-4.7-3-6.3-3
		c-0.5,0-0.9,0.1-1.2,0.3L20.9,20C23.2,17.9,26.3,16.7,29.5,16.7z M19,36.9c-1.5-2.1-2.3-4.7-2.3-7.4c0-3.2,1.2-6.3,3.4-8.6l1.1,1.1
		c-0.4,0.8-0.5,2.1,0.7,4.3c0.5,1,1.2,2,2,3.1c-1.5,1.7-2.7,3.3-3.6,4.8C19.7,35.2,19.3,36.1,19,36.9z M20.4,38.6
		c-0.4-0.4,0.7-3.4,4.5-7.9c0.5,0.6,1,1.1,1.6,1.7c0.6,0.6,1.1,1.1,1.7,1.6c-3.5,3-6.4,4.6-7.6,4.6C20.5,38.6,20.4,38.6,20.4,38.6z
		 M29.5,42.3c-2.7,0-5.2-0.8-7.4-2.3c2.1-0.7,4.8-2.6,7.5-4.9c2.4,1.9,4.7,3,6.3,3c0.5,0,0.9-0.1,1.2-0.3l1.1,1.1
		C35.8,41.1,32.7,42.3,29.5,42.3z M39,38.1L37.9,37c0.1-0.3,0.3-0.7,0.3-1.2c0-1.6-1.1-3.9-3-6.3c1.5-1.7,2.7-3.3,3.6-4.8
		c0.6-1,1-1.9,1.3-2.6c1.5,2.1,2.3,4.6,2.3,7.4C42.3,32.7,41.1,35.8,39,38.1z"/>
</g>
</svg>
